<svg width="63" height="95" viewBox="0 0 63 95" fill="none" xmlns="http://www.w3.org/2000/svg">
<path d="M31.5965 95C31.5965 95 46.4694 75.3822 57.8321 52.6057C69.1948 29.8291 60.6264 10.904 43.7432 2.5305C28.9354 -4.02783 11.1549 2.53051 3.69273 17.9371C-1.08325 29.4833 -1.5163 34.1351 4.10595 49.2844C9.72819 64.4337 31.5965 95 31.5965 95Z" fill="#121823" fill-opacity="0.6"></path>
<path d="M37.1591 9.5L38.5563 10.3349L33.195 15.4424L37.2065 17.8594L39.3235 16.79L40.4034 17.3955L38.1963 19.4365L37.3865 22.5029L36.3066 21.8535L36.2167 19.5293L32.2051 17.1611L30.4054 24.5L29.0082 23.6162V15.1641L23.8269 12.0049C23.2396 11.6777 22.8796 11.1211 23.2396 10.4717C23.5995 9.91503 24.2294 9.91503 24.8167 10.2861L29.9981 13.4453L37.1591 9.5Z" fill="#EDEDED"></path>
<path d="M15.2053 41C14.8933 41 14.6413 40.928 14.4493 40.784C14.2573 40.632 14.1293 40.444 14.0653 40.22C13.9933 40.388 13.8973 40.524 13.7773 40.628C13.6573 40.724 13.5053 40.8 13.3213 40.856C13.1453 40.912 12.9293 40.952 12.6733 40.976C12.4173 40.992 12.1173 41 11.7733 41H6.88933C6.42533 41 6.03733 40.968 5.72533 40.904C5.42133 40.84 5.17333 40.74 4.98133 40.604C4.79733 40.46 4.66533 40.28 4.58533 40.064C4.50533 39.84 4.46533 39.568 4.46533 39.248V37.388H5.44933V38.888C5.44933 39.136 5.47733 39.336 5.53333 39.488C5.59733 39.632 5.70133 39.744 5.84533 39.824C5.98933 39.896 6.18533 39.944 6.43333 39.968C6.68133 39.992 6.99733 40.004 7.38133 40.004H11.7613C12.0253 40.004 12.2493 39.996 12.4333 39.98C12.6173 39.964 12.7613 39.928 12.8653 39.872C12.9773 39.808 13.0573 39.72 13.1053 39.608C13.1533 39.488 13.1773 39.328 13.1773 39.128V32.432H14.1613V38.684C14.1613 38.884 14.1733 39.068 14.1973 39.236C14.2293 39.396 14.2853 39.532 14.3653 39.644C14.4453 39.756 14.5533 39.844 14.6893 39.908C14.8253 39.972 14.9973 40.004 15.2053 40.004C15.5253 40.004 15.6853 40.164 15.6853 40.484C15.6853 40.684 15.6453 40.82 15.5653 40.892C15.4933 40.964 15.3733 41 15.2053 41ZM10.6453 37.46H8.44933V36.908H8.98933C8.87733 36.724 8.82133 36.524 8.82133 36.308C8.82133 36.132 8.84933 35.976 8.90533 35.84C8.96133 35.704 9.03733 35.592 9.13333 35.504C9.22933 35.416 9.33733 35.348 9.45733 35.3C9.58533 35.252 9.71333 35.228 9.84133 35.228C9.97733 35.228 10.0933 35.236 10.1893 35.252C10.2933 35.268 10.3693 35.296 10.4173 35.336V35.9C10.2573 35.828 10.0853 35.792 9.90133 35.792C9.70933 35.792 9.56933 35.848 9.48133 35.96C9.39333 36.072 9.34933 36.196 9.34933 36.332C9.34933 36.492 9.40133 36.628 9.50533 36.74C9.60933 36.852 9.76533 36.908 9.97333 36.908H10.6453V37.46ZM15.1997 41C14.8797 41 14.7197 40.84 14.7197 40.52C14.7197 40.32 14.7597 40.184 14.8397 40.112C14.9117 40.04 15.0317 40.004 15.1997 40.004H16.1597C16.3037 40.004 16.4317 39.996 16.5437 39.98C16.6557 39.964 16.7477 39.928 16.8197 39.872C16.8997 39.808 16.9597 39.72 16.9997 39.608C17.0477 39.488 17.0717 39.328 17.0717 39.128V32.432H18.0557V38.684C18.0557 39.092 18.1357 39.416 18.2957 39.656C18.4637 39.888 18.7277 40.004 19.0877 40.004C19.4077 40.004 19.5677 40.164 19.5677 40.484C19.5677 40.684 19.5277 40.82 19.4477 40.892C19.3757 40.964 19.2557 41 19.0877 41C18.7757 41 18.5237 40.928 18.3317 40.784C18.1477 40.632 18.0237 40.444 17.9597 40.22C17.8157 40.548 17.5837 40.76 17.2637 40.856C16.9517 40.952 16.5477 41 16.0517 41H15.1997ZM26.4703 41C26.1663 41 25.9023 40.94 25.6783 40.82C25.4543 40.7 25.2743 40.496 25.1383 40.208V40.184C24.9863 40.488 24.7623 40.728 24.4663 40.904C24.1783 41.072 23.8143 41.156 23.3743 41.156C22.9983 41.156 22.6183 41.092 22.2343 40.964C21.8503 40.836 21.4543 40.62 21.0463 40.316C20.9423 40.476 20.8343 40.604 20.7223 40.7C20.6183 40.788 20.5063 40.856 20.3863 40.904C20.2663 40.944 20.1423 40.972 20.0143 40.988C19.8863 40.996 19.7503 41 19.6063 41H19.0903C18.7703 41 18.6103 40.84 18.6103 40.52C18.6103 40.32 18.6503 40.184 18.7303 40.112C18.8023 40.04 18.9223 40.004 19.0903 40.004H19.5823C19.6783 40.004 19.7783 39.992 19.8823 39.968C19.9863 39.944 20.0903 39.892 20.1943 39.812C20.2983 39.732 20.3983 39.624 20.4943 39.488C20.5983 39.344 20.6943 39.152 20.7823 38.912C20.9663 38.4 21.1583 37.988 21.3583 37.676C21.5663 37.356 21.7743 37.112 21.9823 36.944C22.1983 36.768 22.4143 36.652 22.6303 36.596C22.8543 36.54 23.0743 36.512 23.2903 36.512C23.5943 36.512 23.8743 36.572 24.1303 36.692C24.3863 36.804 24.6063 36.968 24.7903 37.184C24.9823 37.392 25.1303 37.644 25.2343 37.94C25.3463 38.228 25.4023 38.552 25.4023 38.912C25.4023 38.968 25.3983 39.024 25.3903 39.08C25.3903 39.128 25.3903 39.176 25.3903 39.224C25.4703 39.48 25.5863 39.676 25.7383 39.812C25.8983 39.94 26.1423 40.004 26.4703 40.004C26.7903 40.004 26.9503 40.164 26.9503 40.484C26.9503 40.684 26.9103 40.82 26.8303 40.892C26.7583 40.964 26.6383 41 26.4703 41ZM24.4063 38.876C24.4063 38.7 24.3783 38.528 24.3223 38.36C24.2743 38.192 24.1983 38.044 24.0943 37.916C23.9983 37.788 23.8783 37.688 23.7343 37.616C23.5903 37.536 23.4223 37.496 23.2303 37.496C22.8943 37.496 22.5863 37.644 22.3063 37.94C22.0263 38.236 21.7623 38.756 21.5143 39.5C21.8103 39.692 22.1023 39.848 22.3903 39.968C22.6863 40.08 22.9863 40.136 23.2903 40.136C23.6263 40.136 23.8943 40.04 24.0943 39.848C24.3023 39.656 24.4063 39.332 24.4063 38.876ZM26.4731 41C26.1531 41 25.9931 40.84 25.9931 40.52C25.9931 40.32 26.0331 40.184 26.1131 40.112C26.1851 40.04 26.3051 40.004 26.4731 40.004H28.3451V32.432H29.3291V41H26.4731ZM31.9886 32.432V41H31.0046V32.432H31.9886ZM37.8686 36.98H38.8406V40.328C38.8406 40.92 38.8046 41.416 38.7326 41.816C38.6686 42.224 38.5406 42.552 38.3486 42.8C38.1566 43.048 37.8886 43.228 37.5446 43.34C37.2086 43.452 36.7726 43.508 36.2366 43.508V42.512C36.6286 42.512 36.9326 42.468 37.1486 42.38C37.3726 42.3 37.5366 42.164 37.6406 41.972C37.7526 41.788 37.8166 41.548 37.8326 41.252C37.8566 40.964 37.8686 40.612 37.8686 40.196V36.98ZM43.0282 40.484C43.0282 40.684 42.9882 40.82 42.9082 40.892C42.8362 40.964 42.7162 41 42.5482 41H42.2362C41.9802 41 41.7442 40.976 41.5282 40.928C41.3202 40.872 41.1402 40.78 40.9882 40.652C40.8442 40.524 40.7282 40.356 40.6402 40.148C40.5602 39.932 40.5202 39.664 40.5202 39.344V32.432H41.5042V39.08C41.5042 39.416 41.5562 39.656 41.6602 39.8C41.7642 39.936 41.9962 40.004 42.3562 40.004H42.5482C42.8682 40.004 43.0282 40.164 43.0282 40.484ZM42.5513 41C42.2313 41 42.0713 40.84 42.0713 40.52C42.0713 40.32 42.1113 40.184 42.1913 40.112C42.2633 40.04 42.3833 40.004 42.5513 40.004H43.9073V32.432H44.8913V38.3C45.2993 37.636 45.7753 37.124 46.3193 36.764C46.8713 36.396 47.5113 36.212 48.2393 36.212C49.0153 36.212 49.6193 36.456 50.0513 36.944C50.4913 37.432 50.7113 38.108 50.7113 38.972V40.004H51.6233C51.9433 40.004 52.1033 40.164 52.1033 40.484C52.1033 40.684 52.0633 40.82 51.9833 40.892C51.9113 40.964 51.7913 41 51.6233 41H42.5513ZM49.7273 40.004V39.2C49.7273 38.928 49.6993 38.672 49.6433 38.432C49.5873 38.184 49.4913 37.972 49.3553 37.796C49.2193 37.62 49.0393 37.48 48.8153 37.376C48.5993 37.272 48.3313 37.22 48.0113 37.22C47.6273 37.22 47.2713 37.308 46.9433 37.484C46.6153 37.66 46.3193 37.884 46.0553 38.156C45.7913 38.42 45.5593 38.716 45.3593 39.044C45.1673 39.372 45.0113 39.692 44.8913 40.004H49.7273ZM51.6216 41C51.3016 41 51.1416 40.84 51.1416 40.52C51.1416 40.32 51.1816 40.184 51.2616 40.112C51.3336 40.04 51.4536 40.004 51.6216 40.004H52.1136C52.2096 40.004 52.3096 39.992 52.4136 39.968C52.5176 39.944 52.6216 39.892 52.7256 39.812C52.8296 39.732 52.9296 39.624 53.0256 39.488C53.1296 39.344 53.2256 39.152 53.3136 38.912C53.4976 38.4 53.6896 37.988 53.8896 37.676C54.0976 37.356 54.3056 37.112 54.5136 36.944C54.7296 36.768 54.9456 36.652 55.1616 36.596C55.3856 36.54 55.6056 36.512 55.8216 36.512C56.1256 36.512 56.4056 36.572 56.6616 36.692C56.9176 36.804 57.1376 36.968 57.3216 37.184C57.5136 37.392 57.6616 37.644 57.7656 37.94C57.8776 38.228 57.9336 38.552 57.9336 38.912C57.9336 39.6 57.7656 40.148 57.4296 40.556C57.1016 40.956 56.5936 41.156 55.9056 41.156C55.5296 41.156 55.1496 41.092 54.7656 40.964C54.3816 40.836 53.9856 40.62 53.5776 40.316C53.4736 40.476 53.3656 40.604 53.2536 40.7C53.1496 40.788 53.0376 40.856 52.9176 40.904C52.7976 40.944 52.6736 40.972 52.5456 40.988C52.4176 40.996 52.2816 41 52.1376 41H51.6216ZM56.9376 38.876C56.9376 38.7 56.9096 38.528 56.8536 38.36C56.8056 38.192 56.7296 38.044 56.6256 37.916C56.5296 37.788 56.4096 37.688 56.2656 37.616C56.1216 37.536 55.9536 37.496 55.7616 37.496C55.4256 37.496 55.1176 37.644 54.8376 37.94C54.5576 38.236 54.2936 38.756 54.0456 39.5C54.3416 39.692 54.6336 39.848 54.9216 39.968C55.2176 40.08 55.5176 40.136 55.8216 40.136C56.1576 40.136 56.4256 40.04 56.6256 39.848C56.8336 39.656 56.9376 39.332 56.9376 38.876ZM15.5333 53C15.2693 53 15.0493 52.94 14.8733 52.82C14.6973 52.7 14.5653 52.56 14.4773 52.4C14.4773 52.976 14.4413 53.46 14.3693 53.852C14.2973 54.252 14.1653 54.572 13.9733 54.812C13.7893 55.06 13.5293 55.236 13.1933 55.34C12.8573 55.452 12.4213 55.508 11.8853 55.508V54.512C12.2773 54.512 12.5813 54.468 12.7973 54.38C13.0213 54.3 13.1853 54.164 13.2893 53.972C13.4013 53.788 13.4653 53.548 13.4813 53.252C13.5053 52.964 13.5173 52.612 13.5173 52.196V48.98H14.4893V50.684C14.4893 51.092 14.5613 51.416 14.7053 51.656C14.8573 51.888 15.1333 52.004 15.5333 52.004C15.8533 52.004 16.0133 52.164 16.0133 52.484C16.0133 52.684 15.9733 52.82 15.8933 52.892C15.8213 52.964 15.7013 53 15.5333 53ZM13.3493 46.364C13.3493 46.188 13.4093 46.04 13.5293 45.92C13.6573 45.792 13.8093 45.728 13.9853 45.728C14.1613 45.728 14.3093 45.792 14.4293 45.92C14.5573 46.04 14.6213 46.188 14.6213 46.364C14.6213 46.54 14.5573 46.692 14.4293 46.82C14.3093 46.94 14.1613 47 13.9853 47C13.8093 47 13.6573 46.94 13.5293 46.82C13.4093 46.692 13.3493 46.54 13.3493 46.364ZM15.5278 53C15.2078 53 15.0478 52.84 15.0478 52.52C15.0478 52.32 15.0878 52.184 15.1678 52.112C15.2398 52.04 15.3598 52.004 15.5278 52.004H17.3998V48.38H18.3838V53H15.5278ZM16.0078 54.812C16.0078 54.636 16.0678 54.484 16.1878 54.356C16.3158 54.236 16.4678 54.176 16.6438 54.176C16.8198 54.176 16.9678 54.236 17.0878 54.356C17.2158 54.484 17.2798 54.636 17.2798 54.812C17.2798 54.988 17.2158 55.136 17.0878 55.256C16.9678 55.384 16.8198 55.448 16.6438 55.448C16.4678 55.448 16.3158 55.384 16.1878 55.256C16.0678 55.136 16.0078 54.988 16.0078 54.812ZM17.5678 54.812C17.5678 54.636 17.6278 54.484 17.7478 54.356C17.8758 54.236 18.0278 54.176 18.2038 54.176C18.3798 54.176 18.5278 54.236 18.6478 54.356C18.7758 54.484 18.8398 54.636 18.8398 54.812C18.8398 54.988 18.7758 55.136 18.6478 55.256C18.5278 55.384 18.3798 55.448 18.2038 55.448C18.0278 55.448 17.8758 55.384 17.7478 55.256C17.6278 55.136 17.5678 54.988 17.5678 54.812ZM22.9512 53C22.6872 53 22.4672 52.94 22.2912 52.82C22.1152 52.7 21.9832 52.56 21.8952 52.4C21.8952 52.976 21.8592 53.46 21.7872 53.852C21.7152 54.252 21.5832 54.572 21.3912 54.812C21.2072 55.06 20.9472 55.236 20.6112 55.34C20.2752 55.452 19.8392 55.508 19.3032 55.508V54.512C19.6952 54.512 19.9992 54.468 20.2152 54.38C20.4392 54.3 20.6032 54.164 20.7072 53.972C20.8192 53.788 20.8832 53.548 20.8992 53.252C20.9232 52.964 20.9352 52.612 20.9352 52.196V48.98H21.9072V50.684C21.9072 51.092 21.9792 51.416 22.1232 51.656C22.2752 51.888 22.5512 52.004 22.9512 52.004C23.2712 52.004 23.4312 52.164 23.4312 52.484C23.4312 52.684 23.3912 52.82 23.3112 52.892C23.2392 52.964 23.1192 53 22.9512 53ZM20.7672 46.364C20.7672 46.188 20.8272 46.04 20.9472 45.92C21.0752 45.792 21.2272 45.728 21.4032 45.728C21.5792 45.728 21.7272 45.792 21.8472 45.92C21.9752 46.04 22.0392 46.188 22.0392 46.364C22.0392 46.54 21.9752 46.692 21.8472 46.82C21.7272 46.94 21.5792 47 21.4032 47C21.2272 47 21.0752 46.94 20.9472 46.82C20.8272 46.692 20.7672 46.54 20.7672 46.364ZM22.9458 53C22.6258 53 22.4658 52.84 22.4658 52.52C22.4658 52.32 22.5058 52.184 22.5858 52.112C22.6578 52.04 22.7778 52.004 22.9458 52.004H23.4858C23.7898 52.004 24.0898 51.984 24.3858 51.944C24.6818 51.904 24.9658 51.84 25.2378 51.752L23.7378 50.048C23.7618 49.96 23.7898 49.868 23.8218 49.772C23.8618 49.676 23.9018 49.584 23.9418 49.496C23.9898 49.4 24.0338 49.316 24.0738 49.244C24.1218 49.164 24.1698 49.1 24.2178 49.052C24.4738 48.796 24.7818 48.592 25.1418 48.44C25.5098 48.288 25.9058 48.212 26.3298 48.212C26.6818 48.212 26.9858 48.256 27.2418 48.344C27.5058 48.424 27.7218 48.536 27.8898 48.68C28.0658 48.816 28.1938 48.976 28.2738 49.16C28.3618 49.336 28.4058 49.516 28.4058 49.7C28.4058 50.14 28.2778 50.552 28.0218 50.936C27.7738 51.32 27.4378 51.66 27.0138 51.956C27.1658 51.988 27.3658 52.004 27.6138 52.004H29.2938C29.6138 52.004 29.7738 52.164 29.7738 52.484C29.7738 52.684 29.7338 52.82 29.6538 52.892C29.5818 52.964 29.4618 53 29.2938 53H27.2898C27.0578 53 26.8338 52.972 26.6178 52.916C26.4098 52.852 26.1898 52.72 25.9578 52.52C25.5818 52.672 25.1898 52.792 24.7818 52.88C24.3738 52.96 23.9578 53 23.5338 53H22.9458ZM26.2698 49.148C25.9498 49.148 25.6458 49.212 25.3578 49.34C25.0778 49.468 24.8538 49.636 24.6858 49.844L26.1498 51.392C26.5338 51.2 26.8418 50.972 27.0738 50.708C27.3138 50.444 27.4338 50.164 27.4338 49.868C27.4338 49.684 27.3378 49.52 27.1458 49.376C26.9618 49.224 26.6698 49.148 26.2698 49.148ZM29.2974 53C28.9774 53 28.8174 52.84 28.8174 52.52C28.8174 52.32 28.8574 52.184 28.9374 52.112C29.0094 52.04 29.1294 52.004 29.2974 52.004H31.1694V44.432H32.1534V53H29.2974ZM34.8128 44.432V53H33.8288V44.432H34.8128ZM41.2649 53C40.9369 53 40.6609 52.932 40.4369 52.796C40.2129 52.66 39.9889 52.416 39.7649 52.064C39.6769 52.28 39.5609 52.452 39.4169 52.58C39.2809 52.708 39.1249 52.804 38.9489 52.868C38.7809 52.924 38.6009 52.96 38.4089 52.976C38.2169 52.992 38.0249 53 37.8329 53H36.0089V52.004H38.1569C38.4929 52.004 38.7489 51.964 38.9249 51.884C39.1089 51.796 39.2009 51.672 39.2009 51.512C39.2009 51.36 39.1609 51.208 39.0809 51.056C39.0009 50.904 38.9009 50.74 38.7809 50.564L37.5089 48.68L38.4329 48.104L39.8729 50.492C40.0329 50.756 40.1729 50.984 40.2929 51.176C40.4129 51.368 40.5249 51.524 40.6289 51.644C40.7409 51.764 40.8449 51.856 40.9409 51.92C41.0449 51.976 41.1529 52.004 41.2649 52.004C41.5849 52.004 41.7449 52.164 41.7449 52.484C41.7449 52.684 41.7049 52.82 41.6249 52.892C41.5529 52.964 41.4329 53 41.2649 53ZM41.2622 53C40.9422 53 40.7822 52.84 40.7822 52.52C40.7822 52.32 40.8222 52.184 40.9022 52.112C40.9742 52.04 41.0942 52.004 41.2622 52.004H42.0662C42.2582 52.004 42.4222 51.996 42.5582 51.98C42.6942 51.964 42.8062 51.928 42.8942 51.872C42.9902 51.808 43.0582 51.72 43.0982 51.608C43.1462 51.488 43.1702 51.328 43.1702 51.128V48.38H44.1542V50.684C44.1542 50.884 44.1662 51.068 44.1902 51.236C44.2222 51.396 44.2782 51.532 44.3582 51.644C44.4382 51.756 44.5462 51.844 44.6822 51.908C44.8182 51.972 44.9902 52.004 45.1982 52.004C45.5182 52.004 45.6782 52.164 45.6782 52.484C45.6782 52.684 45.6382 52.82 45.5582 52.892C45.4862 52.964 45.3662 53 45.1982 53C44.8862 53 44.6342 52.928 44.4422 52.784C44.2502 52.632 44.1222 52.444 44.0582 52.22C43.9142 52.548 43.6862 52.76 43.3742 52.856C43.0702 52.952 42.6942 53 42.2462 53H41.2622ZM42.8102 54.788C42.8102 54.612 42.8702 54.46 42.9902 54.332C43.1182 54.212 43.2702 54.152 43.4462 54.152C43.6222 54.152 43.7702 54.212 43.8902 54.332C44.0182 54.46 44.0822 54.612 44.0822 54.788C44.0822 54.964 44.0182 55.112 43.8902 55.232C43.7702 55.36 43.6222 55.424 43.4462 55.424C43.2702 55.424 43.1182 55.36 42.9902 55.232C42.8702 55.112 42.8102 54.964 42.8102 54.788ZM45.1997 53C44.8797 53 44.7197 52.84 44.7197 52.52C44.7197 52.32 44.7597 52.184 44.8397 52.112C44.9117 52.04 45.0317 52.004 45.1997 52.004H46.6757C46.5317 51.852 46.4117 51.656 46.3157 51.416C46.2197 51.176 46.1717 50.904 46.1717 50.6C46.1717 50.184 46.2477 49.824 46.3997 49.52C46.5597 49.216 46.7637 48.964 47.0117 48.764C47.2677 48.564 47.5477 48.416 47.8517 48.32C48.1637 48.224 48.4757 48.176 48.7877 48.176C49.0677 48.176 49.3117 48.192 49.5197 48.224C49.7277 48.256 49.8757 48.292 49.9637 48.332V49.4C49.8117 49.352 49.6477 49.312 49.4717 49.28C49.2957 49.24 49.0797 49.22 48.8237 49.22C48.3197 49.22 47.9197 49.344 47.6237 49.592C47.3277 49.84 47.1797 50.18 47.1797 50.612C47.1797 51.02 47.3077 51.356 47.5637 51.62C47.8197 51.876 48.2077 52.004 48.7277 52.004H50.4797V53H45.1997ZM24.1925 65C24.2805 65.096 24.3565 65.228 24.4205 65.396C24.4845 65.572 24.5165 65.74 24.5165 65.9C24.5165 66.14 24.4445 66.376 24.3005 66.608C24.1645 66.84 23.9405 67.044 23.6285 67.22C23.3165 67.404 22.9085 67.548 22.4045 67.652C21.9085 67.764 21.2965 67.82 20.5685 67.82C19.7605 67.82 19.0925 67.744 18.5645 67.592C18.0445 67.448 17.6285 67.248 17.3165 66.992C17.0125 66.736 16.8005 66.432 16.6805 66.08C16.5605 65.736 16.5005 65.36 16.5005 64.952V63.104H17.4725V64.772C17.4725 65.484 17.7165 66.004 18.2045 66.332C18.6925 66.668 19.4885 66.836 20.5925 66.836C21.0005 66.836 21.3885 66.812 21.7565 66.764C22.1245 66.724 22.4445 66.66 22.7165 66.572C22.9965 66.492 23.2165 66.388 23.3765 66.26C23.5365 66.132 23.6165 65.984 23.6165 65.816C23.6165 65.632 23.5205 65.468 23.3285 65.324C23.1445 65.18 22.9125 65.056 22.6325 64.952C22.3605 64.84 22.0685 64.74 21.7565 64.652C21.4445 64.564 21.1685 64.484 20.9285 64.412V63.44C21.9445 63.816 22.9085 64.004 23.8205 64.004H25.0325C25.3525 64.004 25.5125 64.164 25.5125 64.484C25.5125 64.684 25.4725 64.82 25.3925 64.892C25.3205 64.964 25.2005 65 25.0325 65H24.1925ZM19.0085 69.668C19.0085 69.492 19.0685 69.34 19.1885 69.212C19.3165 69.092 19.4685 69.032 19.6445 69.032C19.8205 69.032 19.9685 69.092 20.0885 69.212C20.2165 69.34 20.2805 69.492 20.2805 69.668C20.2805 69.844 20.2165 69.992 20.0885 70.112C19.9685 70.24 19.8205 70.304 19.6445 70.304C19.4685 70.304 19.3165 70.24 19.1885 70.112C19.0685 69.992 19.0085 69.844 19.0085 69.668ZM20.5685 69.668C20.5685 69.492 20.6285 69.34 20.7485 69.212C20.8765 69.092 21.0285 69.032 21.2045 69.032C21.3805 69.032 21.5285 69.092 21.6485 69.212C21.7765 69.34 21.8405 69.492 21.8405 69.668C21.8405 69.844 21.7765 69.992 21.6485 70.112C21.5285 70.24 21.3805 70.304 21.2045 70.304C21.0285 70.304 20.8765 70.24 20.7485 70.112C20.6285 69.992 20.5685 69.844 20.5685 69.668ZM25.02 65C24.7 65 24.54 64.84 24.54 64.52C24.54 64.32 24.58 64.184 24.66 64.112C24.732 64.04 24.852 64.004 25.02 64.004H26.892V56.432H27.876V65H25.02ZM31.3754 65C31.0634 65 30.7714 64.964 30.4994 64.892C30.2354 64.82 30.0034 64.704 29.8034 64.544C29.6114 64.376 29.4554 64.156 29.3354 63.884C29.2234 63.612 29.1674 63.276 29.1674 62.876C29.1674 62.556 29.2194 62.244 29.3234 61.94C29.4274 61.628 29.5794 61.352 29.7794 61.112C29.9794 60.872 30.2274 60.68 30.5234 60.536C30.8194 60.392 31.1594 60.32 31.5434 60.32C31.9674 60.32 32.3234 60.4 32.6114 60.56C32.9074 60.712 33.1434 60.928 33.3194 61.208C33.4954 61.48 33.6194 61.808 33.6914 62.192C33.7714 62.568 33.8114 62.984 33.8114 63.44V64.568C33.8114 65.168 33.7314 65.656 33.5714 66.032C33.4114 66.416 33.1834 66.716 32.8874 66.932C32.5914 67.156 32.2274 67.308 31.7954 67.388C31.3634 67.468 30.8794 67.508 30.3434 67.508H29.8394V66.512H30.2114C30.5954 66.512 30.9434 66.496 31.2554 66.464C31.5754 66.432 31.8474 66.36 32.0714 66.248C32.3034 66.136 32.4834 65.972 32.6114 65.756C32.7394 65.54 32.8034 65.248 32.8034 64.88V64.652C32.6594 64.74 32.4714 64.82 32.2394 64.892C32.0074 64.964 31.7194 65 31.3754 65ZM30.1274 62.768C30.1274 63.224 30.2514 63.552 30.4994 63.752C30.7474 63.944 31.0714 64.04 31.4714 64.04C31.7754 64.04 32.0434 64 32.2754 63.92C32.5074 63.84 32.6834 63.752 32.8034 63.656V63.212C32.8034 62.94 32.7794 62.684 32.7314 62.444C32.6914 62.204 32.6194 62 32.5154 61.832C32.4114 61.656 32.2754 61.52 32.1074 61.424C31.9394 61.32 31.7354 61.268 31.4954 61.268C31.2474 61.268 31.0354 61.316 30.8594 61.412C30.6914 61.508 30.5514 61.628 30.4394 61.772C30.3354 61.916 30.2554 62.076 30.1994 62.252C30.1514 62.428 30.1274 62.6 30.1274 62.768ZM40.1516 65C39.8236 65 39.5476 64.932 39.3236 64.796C39.0996 64.66 38.8756 64.416 38.6516 64.064C38.5636 64.28 38.4476 64.452 38.3036 64.58C38.1676 64.708 38.0116 64.804 37.8356 64.868C37.6676 64.924 37.4876 64.96 37.2956 64.976C37.1036 64.992 36.9116 65 36.7196 65H34.8956V64.004H37.0436C37.3796 64.004 37.6356 63.964 37.8116 63.884C37.9956 63.796 38.0876 63.672 38.0876 63.512C38.0876 63.36 38.0476 63.208 37.9676 63.056C37.8876 62.904 37.7876 62.74 37.6676 62.564L36.3956 60.68L37.3196 60.104L38.7596 62.492C38.9196 62.756 39.0596 62.984 39.1796 63.176C39.2996 63.368 39.4116 63.524 39.5156 63.644C39.6276 63.764 39.7316 63.856 39.8276 63.92C39.9316 63.976 40.0396 64.004 40.1516 64.004C40.4716 64.004 40.6316 64.164 40.6316 64.484C40.6316 64.684 40.5916 64.82 40.5116 64.892C40.4396 64.964 40.3196 65 40.1516 65ZM40.1489 65C39.8289 65 39.6689 64.84 39.6689 64.52C39.6689 64.32 39.7089 64.184 39.7889 64.112C39.8609 64.04 39.9809 64.004 40.1489 64.004H42.0209V56.432H43.0049V65H40.1489ZM45.6643 56.432V65H44.6803V56.432H45.6643Z" fill="white"></path>
</svg>