<svg width="20" height="20" viewBox="0 0 20 20" fill="none" xmlns="http://www.w3.org/2000/svg">
<path d="M10 20C15.5229 20 20 15.5229 20 10.0001C20 4.47722 15.5229 0 10 0C4.47718 0 0 4.47722 0 10.0001C0 15.5229 4.47718 20 10 20Z" fill="#232323" fill-opacity="0.95"></path>
<path fill-rule="evenodd" clip-rule="evenodd" d="M5.59961 7.97396H11.5152V15.6004H5.59961L5.59961 7.97396ZM8.55741 4.40039V7.42922L11.9378 7.42922V15.6004L14.473 15.6004L14.473 4.40039L8.55741 4.40039ZM9.79346 5.27328L11.0252 5.27328V6.53455H9.79346V5.27328ZM12.0053 5.27328H13.237V6.53455H12.0053V5.27328ZM6.83567 9.13007L6.83567 10.3913H8.06738V9.13007H6.83567ZM9.04749 9.13007V10.3913H10.2792V9.13007H9.04749ZM6.83567 11.1565V12.4178H8.06738V11.1565H6.83567ZM6.83567 13.183V14.4443H8.06738L8.06738 13.183H6.83567ZM9.04749 11.1565V12.4178H10.2792V11.1565H9.04749ZM9.04749 13.183L9.04749 14.4443H10.2792V13.183H9.04749Z" fill="#E8C305"></path>
</svg>