<svg width="63" height="95" viewBox="0 0 63 95" fill="none" xmlns="http://www.w3.org/2000/svg">
<path d="M31.5965 95C31.5965 95 46.4694 75.3822 57.8321 52.6057C69.1948 29.8291 60.6264 10.904 43.7432 2.5305C28.9354 -4.02783 11.1549 2.53051 3.69273 17.9371C-1.08325 29.4833 -1.5163 34.1351 4.10595 49.2844C9.72819 64.4337 31.5965 95 31.5965 95Z" fill="#121823" fill-opacity="0.6"></path>
<path d="M31.7593 20.0055L26.187 17.284V20.3558C26.2751 21.7659 28.7822 22.9156 31.7397 22.9964C34.805 23.0773 37.1064 21.7659 37.2925 20.3558V17.284L31.7593 20.0055Z" fill="#EDEDED"></path>
<path d="M22.75 14.4819L31.7598 10L40.75 14.4819L39.4083 15.1735V20.7242L39.8001 22.5655H37.9785L38.3702 20.7242V15.6316L31.7598 18.9638L22.75 14.4819Z" fill="#EDEDED"></path>
<path d="M14.776 40.1289C14.864 40.2249 14.94 40.3569 15.004 40.5249C15.068 40.7009 15.1 40.8689 15.1 41.0289C15.1 41.2689 15.028 41.5049 14.884 41.7369C14.748 41.9689 14.524 42.1729 14.212 42.3489C13.9 42.5329 13.492 42.6769 12.988 42.7809C12.492 42.8929 11.88 42.9489 11.152 42.9489C10.344 42.9489 9.67598 42.8729 9.14798 42.7209C8.62798 42.5769 8.21198 42.3769 7.89998 42.1209C7.59598 41.8649 7.38398 41.5609 7.26398 41.2089C7.14398 40.8649 7.08398 40.4889 7.08398 40.0809V38.2329H8.05598V39.9009C8.05598 40.6129 8.29998 41.1329 8.78798 41.4609C9.27598 41.7969 10.072 41.9649 11.176 41.9649C11.584 41.9649 11.972 41.9409 12.34 41.8929C12.708 41.8529 13.028 41.7889 13.3 41.7009C13.58 41.6209 13.8 41.5169 13.96 41.3889C14.12 41.2609 14.2 41.1129 14.2 40.9449C14.2 40.7609 14.104 40.5969 13.912 40.4529C13.728 40.3089 13.496 40.1849 13.216 40.0809C12.944 39.9689 12.652 39.8689 12.34 39.7809C12.028 39.6929 11.752 39.6129 11.512 39.5409V38.5689C12.528 38.9449 13.492 39.1329 14.404 39.1329H15.616C15.936 39.1329 16.096 39.2929 16.096 39.6129C16.096 39.8129 16.056 39.9489 15.976 40.0209C15.904 40.0929 15.784 40.1289 15.616 40.1289H14.776ZM9.59198 44.7969C9.59198 44.6209 9.65198 44.4689 9.77198 44.3409C9.89998 44.2209 10.052 44.1609 10.228 44.1609C10.404 44.1609 10.552 44.2209 10.672 44.3409C10.8 44.4689 10.864 44.6209 10.864 44.7969C10.864 44.9729 10.8 45.1209 10.672 45.2409C10.552 45.3689 10.404 45.4329 10.228 45.4329C10.052 45.4329 9.89998 45.3689 9.77198 45.2409C9.65198 45.1209 9.59198 44.9729 9.59198 44.7969ZM11.152 44.7969C11.152 44.6209 11.212 44.4689 11.332 44.3409C11.46 44.2209 11.612 44.1609 11.788 44.1609C11.964 44.1609 12.112 44.2209 12.232 44.3409C12.36 44.4689 12.424 44.6209 12.424 44.7969C12.424 44.9729 12.36 45.1209 12.232 45.2409C12.112 45.3689 11.964 45.4329 11.788 45.4329C11.612 45.4329 11.46 45.3689 11.332 45.2409C11.212 45.1209 11.152 44.9729 11.152 44.7969ZM20.4155 39.1329C20.4155 38.6209 20.3475 38.1889 20.2115 37.8369C20.0755 37.4849 19.8915 37.2009 19.6595 36.9849C19.4275 36.7609 19.1555 36.6009 18.8435 36.5049C18.5395 36.4009 18.2115 36.3489 17.8595 36.3489C17.6275 36.3489 17.3795 36.3729 17.1155 36.4209C16.8595 36.4609 16.6475 36.5049 16.4795 36.5529V35.5929C16.6395 35.5449 16.8515 35.4929 17.1155 35.4369C17.3795 35.3729 17.6675 35.3409 17.9795 35.3409C18.5875 35.3409 19.1115 35.4449 19.5515 35.6529C19.9915 35.8609 20.3515 36.1449 20.6315 36.5049C20.9115 36.8569 21.1155 37.2729 21.2435 37.7529C21.3795 38.2249 21.4475 38.7249 21.4475 39.2529V40.1289H15.6035C15.2835 40.1289 15.1235 39.9689 15.1235 39.6489C15.1235 39.4489 15.1635 39.3129 15.2435 39.2409C15.3155 39.1689 15.4355 39.1329 15.6035 39.1329H20.4155ZM18.1115 41.9289C18.1115 41.7529 18.1715 41.6009 18.2915 41.4729C18.4195 41.3529 18.5715 41.2929 18.7475 41.2929C18.9235 41.2929 19.0715 41.3529 19.1915 41.4729C19.3195 41.6009 19.3835 41.7529 19.3835 41.9289C19.3835 42.1049 19.3195 42.2529 19.1915 42.3729C19.0715 42.5009 18.9235 42.5649 18.7475 42.5649C18.5715 42.5649 18.4195 42.5009 18.2915 42.3729C18.1715 42.2529 18.1115 42.1049 18.1115 41.9289ZM25.7808 40.1289C25.5168 40.1289 25.2968 40.0689 25.1208 39.9489C24.9448 39.8289 24.8128 39.6889 24.7248 39.5289C24.7248 40.1049 24.6888 40.5889 24.6168 40.9809C24.5448 41.3809 24.4128 41.7009 24.2208 41.9409C24.0368 42.1889 23.7768 42.3649 23.4408 42.4689C23.1048 42.5809 22.6688 42.6369 22.1328 42.6369V41.6409C22.5248 41.6409 22.8288 41.5969 23.0448 41.5089C23.2688 41.4289 23.4328 41.2929 23.5368 41.1009C23.6488 40.9169 23.7128 40.6769 23.7288 40.3809C23.7528 40.0929 23.7648 39.7409 23.7648 39.3249V36.1089H24.7368V37.8129C24.7368 38.2209 24.8088 38.5449 24.9528 38.7849C25.1048 39.0169 25.3808 39.1329 25.7808 39.1329C26.1008 39.1329 26.2608 39.2929 26.2608 39.6129C26.2608 39.8129 26.2208 39.9489 26.1408 40.0209C26.0688 40.0929 25.9488 40.1289 25.7808 40.1289ZM25.7754 40.1289C25.4554 40.1289 25.2954 39.9689 25.2954 39.6489C25.2954 39.4489 25.3354 39.3129 25.4154 39.2409C25.4874 39.1689 25.6074 39.1329 25.7754 39.1329H26.5794C26.7714 39.1329 26.9354 39.1249 27.0714 39.1089C27.2074 39.0929 27.3194 39.0569 27.4074 39.0009C27.5034 38.9369 27.5714 38.8489 27.6114 38.7369C27.6594 38.6169 27.6834 38.4569 27.6834 38.2569V35.5089H28.6674V37.8129C28.6674 38.0129 28.6794 38.1969 28.7034 38.3649C28.7354 38.5249 28.7914 38.6609 28.8714 38.7729C28.9514 38.8849 29.0594 38.9729 29.1954 39.0369C29.3314 39.1009 29.5034 39.1329 29.7114 39.1329C30.0314 39.1329 30.1914 39.2929 30.1914 39.6129C30.1914 39.8129 30.1514 39.9489 30.0714 40.0209C29.9994 40.0929 29.8794 40.1289 29.7114 40.1289C29.3994 40.1289 29.1474 40.0569 28.9554 39.9129C28.7634 39.7609 28.6354 39.5729 28.5714 39.3489C28.4274 39.6769 28.1994 39.8889 27.8874 39.9849C27.5834 40.0809 27.2074 40.1289 26.7594 40.1289H25.7754ZM26.7234 33.4929C26.7234 33.3169 26.7834 33.1689 26.9034 33.0489C27.0314 32.9209 27.1834 32.8569 27.3594 32.8569C27.5354 32.8569 27.6834 32.9209 27.8034 33.0489C27.9314 33.1689 27.9954 33.3169 27.9954 33.4929C27.9954 33.6689 27.9314 33.8209 27.8034 33.9489C27.6834 34.0689 27.5354 34.1289 27.3594 34.1289C27.1834 34.1289 27.0314 34.0689 26.9034 33.9489C26.7834 33.8209 26.7234 33.6689 26.7234 33.4929ZM28.2834 33.4929C28.2834 33.3169 28.3434 33.1689 28.4634 33.0489C28.5914 32.9209 28.7434 32.8569 28.9194 32.8569C29.0954 32.8569 29.2434 32.9209 29.3634 33.0489C29.4914 33.1689 29.5554 33.3169 29.5554 33.4929C29.5554 33.6689 29.4914 33.8209 29.3634 33.9489C29.2434 34.0689 29.0954 34.1289 28.9194 34.1289C28.7434 34.1289 28.5914 34.0689 28.4634 33.9489C28.3434 33.8209 28.2834 33.6689 28.2834 33.4929ZM29.7129 40.1289C29.3929 40.1289 29.2329 39.9689 29.2329 39.6489C29.2329 39.4489 29.2729 39.3129 29.3529 39.2409C29.4249 39.1689 29.5449 39.1329 29.7129 39.1329H31.5849V35.5089H32.5689V40.1289H29.7129ZM31.2369 41.9169C31.2369 41.7409 31.2969 41.5889 31.4169 41.4609C31.5449 41.3409 31.6969 41.2809 31.8729 41.2809C32.0489 41.2809 32.1969 41.3409 32.3169 41.4609C32.4449 41.5889 32.5089 41.7409 32.5089 41.9169C32.5089 42.0929 32.4449 42.2409 32.3169 42.3609C32.1969 42.4889 32.0489 42.5529 31.8729 42.5529C31.6969 42.5529 31.5449 42.4889 31.4169 42.3609C31.2969 42.2409 31.2369 42.0929 31.2369 41.9169ZM37.7401 36.9969C37.7401 37.3329 37.8441 37.6049 38.0521 37.8129C38.2681 38.0209 38.6081 38.1249 39.0721 38.1249C39.2481 38.1249 39.4361 38.1049 39.6361 38.0649C39.8441 38.0249 40.0281 37.9729 40.1881 37.9089V35.7729H39.1321C38.7481 35.7729 38.4201 35.8729 38.1481 36.0729C37.8761 36.2649 37.7401 36.5729 37.7401 36.9969ZM38.9881 39.1449C38.7961 39.1449 38.5721 39.1169 38.3161 39.0609C38.0681 39.0049 37.8281 38.9049 37.5961 38.7609C37.3721 38.6089 37.1801 38.4009 37.0201 38.1369C36.8601 37.8649 36.7801 37.5129 36.7801 37.0809C36.7801 36.6489 36.8561 36.2889 37.0081 36.0009C37.1601 35.7049 37.3561 35.4649 37.5961 35.2809C37.8361 35.0969 38.1001 34.9649 38.3881 34.8849C38.6841 34.8049 38.9761 34.7649 39.2641 34.7649H41.1721V38.2089C41.1721 38.5449 41.2241 38.7849 41.3281 38.9289C41.4321 39.0649 41.6641 39.1329 42.0241 39.1329H42.3121C42.6321 39.1329 42.7921 39.2929 42.7921 39.6129C42.7921 39.8129 42.7521 39.9489 42.6721 40.0209C42.6001 40.0929 42.4801 40.1289 42.3121 40.1289H41.9041C41.6961 40.1289 41.4961 40.1129 41.3041 40.0809C41.1201 40.0409 40.9521 39.9769 40.8001 39.8889C40.6561 39.7929 40.5321 39.6689 40.4281 39.5169C40.3241 39.3649 40.2561 39.1689 40.2241 38.9289C40.0481 38.9929 39.8481 39.0449 39.6241 39.0849C39.4081 39.1249 39.1961 39.1449 38.9881 39.1449ZM38.0041 32.5809C38.0041 32.4049 38.0641 32.2569 38.1841 32.1369C38.3121 32.0089 38.4641 31.9449 38.6401 31.9449C38.8161 31.9449 38.9641 32.0089 39.0841 32.1369C39.2121 32.2569 39.2761 32.4049 39.2761 32.5809C39.2761 32.7569 39.2121 32.9089 39.0841 33.0369C38.9641 33.1569 38.8161 33.2169 38.6401 33.2169C38.4641 33.2169 38.3121 33.1569 38.1841 33.0369C38.0641 32.9089 38.0041 32.7569 38.0041 32.5809ZM39.5641 32.5809C39.5641 32.4049 39.6241 32.2569 39.7441 32.1369C39.8721 32.0089 40.0241 31.9449 40.2001 31.9449C40.3761 31.9449 40.5241 32.0089 40.6441 32.1369C40.7721 32.2569 40.8361 32.4049 40.8361 32.5809C40.8361 32.7569 40.7721 32.9089 40.6441 33.0369C40.5241 33.1569 40.3761 33.2169 40.2001 33.2169C40.0241 33.2169 39.8721 33.1569 39.7441 33.0369C39.6241 32.9089 39.5641 32.7569 39.5641 32.5809ZM42.3105 40.1289C41.9905 40.1289 41.8305 39.9689 41.8305 39.6489C41.8305 39.4489 41.8705 39.3129 41.9505 39.2409C42.0225 39.1689 42.1425 39.1329 42.3105 39.1329H43.1145C43.3065 39.1329 43.4705 39.1249 43.6065 39.1089C43.7425 39.0929 43.8545 39.0569 43.9425 39.0009C44.0385 38.9369 44.1065 38.8489 44.1465 38.7369C44.1945 38.6169 44.2185 38.4569 44.2185 38.2569V35.5089H45.2025V37.8129C45.2025 38.0129 45.2145 38.1969 45.2385 38.3649C45.2705 38.5249 45.3265 38.6609 45.4065 38.7729C45.4865 38.8849 45.5945 38.9729 45.7305 39.0369C45.8665 39.1009 46.0385 39.1329 46.2465 39.1329C46.5665 39.1329 46.7265 39.2929 46.7265 39.6129C46.7265 39.8129 46.6865 39.9489 46.6065 40.0209C46.5345 40.0929 46.4145 40.1289 46.2465 40.1289C45.9345 40.1289 45.6825 40.0569 45.4905 39.9129C45.2985 39.7609 45.1705 39.5729 45.1065 39.3489C44.9625 39.6769 44.7345 39.8889 44.4225 39.9849C44.1185 40.0809 43.7425 40.1289 43.2945 40.1289H42.3105ZM43.2585 41.9409C43.2585 41.7649 43.3185 41.6129 43.4385 41.4849C43.5665 41.3649 43.7185 41.3049 43.8945 41.3049C44.0705 41.3049 44.2185 41.3649 44.3385 41.4849C44.4665 41.6129 44.5305 41.7649 44.5305 41.9409C44.5305 42.1169 44.4665 42.2649 44.3385 42.3849C44.2185 42.5129 44.0705 42.5769 43.8945 42.5769C43.7185 42.5769 43.5665 42.5129 43.4385 42.3849C43.3185 42.2649 43.2585 42.1169 43.2585 41.9409ZM44.8185 41.9409C44.8185 41.7649 44.8785 41.6129 44.9985 41.4849C45.1265 41.3649 45.2785 41.3049 45.4545 41.3049C45.6305 41.3049 45.7785 41.3649 45.8985 41.4849C46.0265 41.6129 46.0905 41.7649 46.0905 41.9409C46.0905 42.1169 46.0265 42.2649 45.8985 42.3849C45.7785 42.5129 45.6305 42.5769 45.4545 42.5769C45.2785 42.5769 45.1265 42.5129 44.9985 42.3849C44.8785 42.2649 44.8185 42.1169 44.8185 41.9409ZM46.248 40.1289C45.928 40.1289 45.768 39.9689 45.768 39.6489C45.768 39.4489 45.808 39.3129 45.888 39.2409C45.96 39.1689 46.08 39.1329 46.248 39.1329H47.208C47.352 39.1329 47.48 39.1249 47.592 39.1089C47.704 39.0929 47.796 39.0569 47.868 39.0009C47.948 38.9369 48.008 38.8489 48.048 38.7369C48.096 38.6169 48.12 38.4569 48.12 38.2569V31.5609H49.104V37.8129C49.104 38.2209 49.184 38.5449 49.344 38.7849C49.512 39.0169 49.776 39.1329 50.136 39.1329C50.456 39.1329 50.616 39.2929 50.616 39.6129C50.616 39.8129 50.576 39.9489 50.496 40.0209C50.424 40.0929 50.304 40.1289 50.136 40.1289C49.824 40.1289 49.572 40.0569 49.38 39.9129C49.196 39.7609 49.072 39.5729 49.008 39.3489C48.864 39.6769 48.632 39.8889 48.312 39.9849C48 40.0809 47.596 40.1289 47.1 40.1289H46.248ZM50.1387 40.1289C49.8187 40.1289 49.6587 39.9689 49.6587 39.6489C49.6587 39.4489 49.6987 39.3129 49.7787 39.2409C49.8507 39.1689 49.9707 39.1329 50.1387 39.1329H53.0067C53.3027 39.1329 53.5467 39.0809 53.7387 38.9769C53.9387 38.8729 54.0387 38.6729 54.0387 38.3769C54.0387 38.1689 53.9387 37.9329 53.7387 37.6689C53.5467 37.3969 53.2867 37.1249 52.9587 36.8529C52.6387 36.5729 52.2707 36.3009 51.8547 36.0369C51.4387 35.7649 51.0067 35.5209 50.5587 35.3049C50.5667 35.2089 50.5907 35.1129 50.6307 35.0169C50.6707 34.9129 50.7147 34.8209 50.7627 34.7409C50.8107 34.6529 50.8587 34.5769 50.9067 34.5129C50.9627 34.4489 51.0067 34.4049 51.0387 34.3809L55.4307 32.4489V33.4209L51.9027 34.9809C52.4627 35.3089 52.9387 35.6289 53.3307 35.9409C53.7227 36.2529 54.0427 36.5529 54.2907 36.8409C54.5387 37.1289 54.7147 37.4089 54.8187 37.6809C54.9307 37.9449 54.9867 38.1969 54.9867 38.4369C54.9867 38.6049 54.9587 38.7889 54.9027 38.9889C54.8547 39.1889 54.7587 39.3729 54.6147 39.5409C54.4707 39.7089 54.2667 39.8489 54.0027 39.9609C53.7387 40.0729 53.3987 40.1289 52.9827 40.1289H50.1387ZM18.0644 52.9969C18.0644 53.3329 18.1684 53.6049 18.3764 53.8129C18.5924 54.0209 18.9324 54.1249 19.3964 54.1249C19.5724 54.1249 19.7604 54.1049 19.9604 54.0649C20.1684 54.0249 20.3524 53.9729 20.5124 53.9089V51.7729H19.4564C19.0724 51.7729 18.7444 51.8729 18.4724 52.0729C18.2004 52.2649 18.0644 52.5729 18.0644 52.9969ZM19.3124 55.1449C19.1204 55.1449 18.8964 55.1169 18.6404 55.0609C18.3924 55.0049 18.1524 54.9049 17.9204 54.7609C17.6964 54.6089 17.5044 54.4009 17.3444 54.1369C17.1844 53.8649 17.1044 53.5129 17.1044 53.0809C17.1044 52.6489 17.1804 52.2889 17.3324 52.0009C17.4844 51.7049 17.6804 51.4649 17.9204 51.2809C18.1604 51.0969 18.4244 50.9649 18.7124 50.8849C19.0084 50.8049 19.3004 50.7649 19.5884 50.7649H21.4964V54.2089C21.4964 54.5449 21.5484 54.7849 21.6524 54.9289C21.7564 55.0649 21.9884 55.1329 22.3484 55.1329H22.6364C22.9564 55.1329 23.1164 55.2929 23.1164 55.6129C23.1164 55.8129 23.0764 55.9489 22.9964 56.0209C22.9244 56.0929 22.8044 56.1289 22.6364 56.1289H22.2284C22.0204 56.1289 21.8204 56.1129 21.6284 56.0809C21.4444 56.0409 21.2764 55.9769 21.1244 55.8889C20.9804 55.7929 20.8564 55.6689 20.7524 55.5169C20.6484 55.3649 20.5804 55.1689 20.5484 54.9289C20.3724 54.9929 20.1724 55.0449 19.9484 55.0849C19.7324 55.1249 19.5204 55.1449 19.3124 55.1449ZM18.3284 48.5809C18.3284 48.4049 18.3884 48.2569 18.5084 48.1369C18.6364 48.0089 18.7884 47.9449 18.9644 47.9449C19.1404 47.9449 19.2884 48.0089 19.4084 48.1369C19.5364 48.2569 19.6004 48.4049 19.6004 48.5809C19.6004 48.7569 19.5364 48.9089 19.4084 49.0369C19.2884 49.1569 19.1404 49.2169 18.9644 49.2169C18.7884 49.2169 18.6364 49.1569 18.5084 49.0369C18.3884 48.9089 18.3284 48.7569 18.3284 48.5809ZM19.8884 48.5809C19.8884 48.4049 19.9484 48.2569 20.0684 48.1369C20.1964 48.0089 20.3484 47.9449 20.5244 47.9449C20.7004 47.9449 20.8484 48.0089 20.9684 48.1369C21.0964 48.2569 21.1604 48.4049 21.1604 48.5809C21.1604 48.7569 21.0964 48.9089 20.9684 49.0369C20.8484 49.1569 20.7004 49.2169 20.5244 49.2169C20.3484 49.2169 20.1964 49.1569 20.0684 49.0369C19.9484 48.9089 19.8884 48.7569 19.8884 48.5809ZM22.6348 56.1289C22.3148 56.1289 22.1548 55.9689 22.1548 55.6489C22.1548 55.4489 22.1948 55.3129 22.2748 55.2409C22.3468 55.1689 22.4668 55.1329 22.6348 55.1329H23.4388C23.6308 55.1329 23.7948 55.1249 23.9308 55.1089C24.0668 55.0929 24.1788 55.0569 24.2668 55.0009C24.3628 54.9369 24.4308 54.8489 24.4708 54.7369C24.5188 54.6169 24.5428 54.4569 24.5428 54.2569V51.5089H25.5268V53.8129C25.5268 54.0129 25.5388 54.1969 25.5628 54.3649C25.5948 54.5249 25.6508 54.6609 25.7308 54.7729C25.8108 54.8849 25.9188 54.9729 26.0548 55.0369C26.1908 55.1009 26.3628 55.1329 26.5708 55.1329C26.8908 55.1329 27.0508 55.2929 27.0508 55.6129C27.0508 55.8129 27.0108 55.9489 26.9308 56.0209C26.8588 56.0929 26.7388 56.1289 26.5708 56.1289C26.2588 56.1289 26.0068 56.0569 25.8148 55.9129C25.6228 55.7609 25.4948 55.5729 25.4308 55.3489C25.2868 55.6769 25.0588 55.8889 24.7468 55.9849C24.4428 56.0809 24.0668 56.1289 23.6188 56.1289H22.6348ZM23.5828 57.9409C23.5828 57.7649 23.6428 57.6129 23.7628 57.4849C23.8908 57.3649 24.0428 57.3049 24.2188 57.3049C24.3948 57.3049 24.5428 57.3649 24.6628 57.4849C24.7908 57.6129 24.8548 57.7649 24.8548 57.9409C24.8548 58.1169 24.7908 58.2649 24.6628 58.3849C24.5428 58.5129 24.3948 58.5769 24.2188 58.5769C24.0428 58.5769 23.8908 58.5129 23.7628 58.3849C23.6428 58.2649 23.5828 58.1169 23.5828 57.9409ZM25.1428 57.9409C25.1428 57.7649 25.2028 57.6129 25.3228 57.4849C25.4508 57.3649 25.6028 57.3049 25.7788 57.3049C25.9548 57.3049 26.1028 57.3649 26.2228 57.4849C26.3508 57.6129 26.4148 57.7649 26.4148 57.9409C26.4148 58.1169 26.3508 58.2649 26.2228 58.3849C26.1028 58.5129 25.9548 58.5769 25.7788 58.5769C25.6028 58.5769 25.4508 58.5129 25.3228 58.3849C25.2028 58.2649 25.1428 58.1169 25.1428 57.9409ZM26.5723 56.1289C26.2523 56.1289 26.0923 55.9689 26.0923 55.6489C26.0923 55.4489 26.1323 55.3129 26.2123 55.2409C26.2843 55.1689 26.4043 55.1329 26.5723 55.1329H27.3763C27.5683 55.1329 27.7323 55.1249 27.8683 55.1089C28.0043 55.0929 28.1163 55.0569 28.2043 55.0009C28.3003 54.9369 28.3683 54.8489 28.4083 54.7369C28.4563 54.6169 28.4803 54.4569 28.4803 54.2569V51.5089H29.4643V53.8129C29.4643 54.0129 29.4763 54.1969 29.5003 54.3649C29.5323 54.5249 29.5883 54.6609 29.6683 54.7729C29.7483 54.8849 29.8563 54.9729 29.9923 55.0369C30.1283 55.1009 30.3003 55.1329 30.5083 55.1329C30.8283 55.1329 30.9883 55.2929 30.9883 55.6129C30.9883 55.8129 30.9483 55.9489 30.8683 56.0209C30.7963 56.0929 30.6763 56.1289 30.5083 56.1289C30.1963 56.1289 29.9443 56.0569 29.7523 55.9129C29.5603 55.7609 29.4323 55.5729 29.3683 55.3489C29.2243 55.6769 28.9963 55.8889 28.6843 55.9849C28.3803 56.0809 28.0043 56.1289 27.5563 56.1289H26.5723ZM28.1203 57.9169C28.1203 57.7409 28.1803 57.5889 28.3003 57.4609C28.4283 57.3409 28.5803 57.2809 28.7563 57.2809C28.9323 57.2809 29.0803 57.3409 29.2003 57.4609C29.3283 57.5889 29.3923 57.7409 29.3923 57.9169C29.3923 58.0929 29.3283 58.2409 29.2003 58.3609C29.0803 58.4889 28.9323 58.5529 28.7563 58.5529C28.5803 58.5529 28.4283 58.4889 28.3003 58.3609C28.1803 58.2409 28.1203 58.0929 28.1203 57.9169ZM30.5098 56.1289C30.1898 56.1289 30.0298 55.9689 30.0298 55.6489C30.0298 55.4489 30.0698 55.3129 30.1498 55.2409C30.2218 55.1689 30.3418 55.1329 30.5098 55.1329H31.8658V47.5609H32.8498V53.4289C33.2578 52.7649 33.7338 52.2529 34.2778 51.8929C34.8298 51.5249 35.4698 51.3409 36.1978 51.3409C36.9738 51.3409 37.5778 51.5849 38.0098 52.0729C38.4498 52.5609 38.6698 53.2369 38.6698 54.1009V55.1329H39.5818C39.9018 55.1329 40.0618 55.2929 40.0618 55.6129C40.0618 55.8129 40.0218 55.9489 39.9418 56.0209C39.8698 56.0929 39.7498 56.1289 39.5818 56.1289H30.5098ZM37.6858 55.1329V54.3289C37.6858 54.0569 37.6578 53.8009 37.6018 53.5609C37.5458 53.3129 37.4498 53.1009 37.3138 52.9249C37.1778 52.7489 36.9978 52.6089 36.7738 52.5049C36.5578 52.4009 36.2898 52.3489 35.9698 52.3489C35.5858 52.3489 35.2298 52.4369 34.9018 52.6129C34.5738 52.7889 34.2778 53.0129 34.0138 53.2849C33.7498 53.5489 33.5178 53.8449 33.3178 54.1729C33.1258 54.5009 32.9698 54.8209 32.8498 55.1329H37.6858ZM39.5801 56.1289C39.2601 56.1289 39.1001 55.9689 39.1001 55.6489C39.1001 55.4489 39.1401 55.3129 39.2201 55.2409C39.2921 55.1689 39.4121 55.1329 39.5801 55.1329H41.4521V47.5609H42.4361V56.1289H39.5801ZM45.0955 47.5609V56.1289H44.1115V47.5609H45.0955Z" fill="white"></path>
</svg>