<svg width="22" height="22" viewBox="0 0 20 21" fill="none" xmlns="http://www.w3.org/2000/svg">
<path d="M9.93748 19.5684C14.9426 19.5684 19 15.5109 19 10.5058C19 5.50074 14.9426 1.44336 9.93748 1.44336C4.93239 1.44336 0.875 5.50074 0.875 10.5058C0.875 15.5109 4.93239 19.5684 9.93748 19.5684Z" fill="#8A93DD" stroke="white" stroke-width="0.9375"></path>
<path d="M9.54688 5.81787L3.6875 8.99425L9.54688 12.25L13.8438 9.86774V13.5207L13.6094 14.8706H14.7813L14.5469 13.5207V9.55018L15.4062 9.07364L9.54688 5.81787ZM5.95314 11.0589V13.2824C5.95314 14.3147 7.59375 15.1088 9.54688 15.1882C11.5781 15.2676 13.0625 14.3147 13.1407 13.2824V11.0589L9.54688 13.0441L5.95314 11.0589Z" fill="white"></path>
</svg>