<svg width="25" height="25" viewBox="0 0 25 25" fill="#fff" xmlns="http://www.w3.org/2000/svg">
<path d="M5.45171 7.12941C4.69822 7.61519 3.99208 8.18112 3.34682 8.82164L2.49043 9.67324C1.85616 10.3059 0.5 12.0562 0.5 12.0562C0.5 12.0562 1.85616 13.8064 2.49043 14.4391L3.34682 15.2907C5.77587 17.7019 9.06781 19.0562 12.5 19.0562C13.938 19.0562 15.3515 18.8184 16.6871 18.3648L13.9643 15.642C13.5031 15.8262 13.0066 15.9235 12.5 15.9235C11.723 15.9235 10.9635 15.6944 10.3175 15.2652C9.67147 14.8359 9.16796 14.2258 8.87063 13.512C8.5733 12.7982 8.4955 12.0128 8.64708 11.255C8.69621 11.0094 8.76871 10.7703 8.86298 10.5407L5.45171 7.12941Z" fill="#fff"></path>
<path d="M10.1506 11.8283C10.1456 11.8906 10.1431 11.9536 10.1431 12.0172C10.1431 13.3117 11.1984 14.361 12.5001 14.361C12.5596 14.361 12.6185 14.3588 12.6768 14.3545L10.1506 11.8283Z" fill="#fff"></path>
<path d="M14.8427 12.2778L12.2512 9.68625C12.333 9.67772 12.416 9.67334 12.5001 9.67334C13.8019 9.67334 14.8572 10.7227 14.8572 12.0172C14.8572 12.1053 14.8523 12.1922 14.8427 12.2778Z" fill="#fff"></path>
<path d="M16.1138 13.5489C16.3194 13.0691 16.4284 12.5487 16.4284 12.0171C16.4284 11.2445 16.198 10.4892 15.7663 9.8468C15.3347 9.2044 14.7212 8.7037 14.0033 8.40803C13.2855 8.11237 12.4956 8.03501 11.7336 8.18574C11.474 8.23708 11.2216 8.31412 10.9799 8.41498L8.31256 5.74762C9.6483 5.29393 11.0618 5.05615 12.5 5.05615C15.9322 5.05615 19.2241 6.41041 21.6532 8.82164L22.5096 9.67324C23.1438 10.3059 24.5 12.0562 24.5 12.0562C24.5 12.0562 23.1438 13.8064 22.5096 14.4391L21.6532 15.2907C21.0078 15.9313 20.3016 16.4973 19.548 16.9831L16.1138 13.5489Z" fill="#fff"></path>
<path d="M3.56055 2.05615L22.6897 21.1853L21.629 22.2459L2.49989 3.11681L3.56055 2.05615Z" fill="#fff"></path>
</svg>