<svg width="24" height="24" viewBox="0 0 24 24" fill="none" xmlns="http://www.w3.org/2000/svg">
<path d="M12.8796 18.1758C12.2689 18.1664 11.6802 17.9469 11.2125 17.5542L8.1328 14.8418C7.64819 14.389 6.90712 14.3531 6.38102 14.7571L2.00163 17.978V20.0688C1.97015 20.6297 2.39939 21.1099 2.96026 21.1413C2.98914 21.143 3.01813 21.1433 3.04706 21.1425H18.5587C19.1803 21.1425 19.8019 20.6904 19.8019 20.0688V14.5875L14.2357 17.8085C13.8266 18.0545 13.357 18.1817 12.8796 18.1758Z" fill="#D5D4D4"></path>
<path d="M12.6534 12.6973C13.34 12.6973 13.8966 12.1407 13.8966 11.4541C13.8966 10.7675 13.34 10.2109 12.6534 10.2109C11.9668 10.2109 11.4102 10.7675 11.4102 11.4541C11.4102 12.1407 11.9668 12.6973 12.6534 12.6973Z" fill="#D5D4D4"></path>
<path d="M22.74 5.20838C22.5596 4.96264 22.281 4.80786 21.9771 4.78455L6.57846 3.00454C6.27826 2.97939 5.97865 3.05927 5.73085 3.2306C5.51139 3.42118 5.36218 3.67984 5.30702 3.96523L5.05273 6.16907H18.5583C19.846 6.19827 20.8871 7.22699 20.9317 8.51417V18.4879C20.9317 18.4314 21.186 18.3749 21.299 18.2619C21.533 18.0782 21.6686 17.7965 21.6664 17.499L22.9943 6.02776C23.0236 5.73145 22.9319 5.4359 22.74 5.20838Z" fill="#D5D4D4"></path>
<path d="M18.561 7.30078H3.04934C2.42774 7.30078 2.00391 7.8941 2.00391 8.5157V16.5682L5.73347 13.8558C6.68021 13.1535 7.98993 13.2125 8.86971 13.997L11.9777 16.7095C12.4463 17.1073 13.1157 17.1641 13.6447 16.8507L19.8041 13.2624V8.5157C19.7614 7.8524 19.2251 7.32831 18.561 7.30078ZM12.6558 13.8275C11.345 13.8275 10.2824 12.7649 10.2824 11.4541C10.2824 10.1434 11.345 9.08074 12.6558 9.08074C13.9665 9.08074 15.0292 10.1433 15.0292 11.4541C15.0292 12.7649 13.9666 13.8275 12.6558 13.8275Z" fill="#D5D4D4"></path>
</svg>