<svg width="20" height="20" viewBox="0 0 20 20" fill="none" xmlns="http://www.w3.org/2000/svg">
<path d="M10 20C15.5229 20 20 15.5229 20 10.0001C20 4.47722 15.5229 0 10 0C4.47718 0 0 4.47722 0 10.0001C0 15.5229 4.47718 20 10 20Z" fill="#232323" fill-opacity="0.9"></path>
<path d="M11.6618 15H13.8677L13.9412 14.9265V5.07355L13.8677 5H11.6618L11.5883 5.07355V9.11768H8.35299V5.07355L8.2795 5H6.0736L6 5.07355V14.9265L6.0736 15H8.2795L8.35299 14.9265V10.8824H11.5883L11.6618 15C11.5883 15 11.5883 14.9265 11.6618 15Z" fill="#EB7979"></path>
</svg>