<svg width="20" height="21" viewBox="0 0 20 21" fill="none" xmlns="http://www.w3.org/2000/svg">
<path d="M10 20.5C15.5229 20.5 20 16.0229 20 10.5001C20 4.97722 15.5229 0.5 10 0.5C4.47718 0.5 0 4.97722 0 10.5001C0 16.0229 4.47718 20.5 10 20.5Z" fill="#232323" fill-opacity="0.9"></path>
<path d="M10.4265 7.96578H4.22155C4.17899 7.96574 4.13734 7.95346 4.10157 7.93039C4.0658 7.90732 4.03742 7.87445 4.01983 7.83569C4.00223 7.79693 3.99617 7.75393 4.00235 7.71182C4.00854 7.6697 4.02671 7.63026 4.05471 7.5982L7.15717 4.05253C7.1786 4.02978 7.20445 4.01165 7.23314 3.99925C7.26184 3.98686 7.29276 3.98047 7.32402 3.98047C7.35527 3.98047 7.38619 3.98686 7.41489 3.99925C7.44358 4.01165 7.46943 4.02978 7.49086 4.05253L10.5933 7.5982C10.6213 7.63026 10.6395 7.6697 10.6457 7.71182C10.6519 7.75393 10.6458 7.79693 10.6282 7.83569C10.6106 7.87445 10.5822 7.90732 10.5465 7.93039C10.5107 7.95346 10.469 7.96574 10.4265 7.96578ZM7.32402 11.0682C7.4555 11.0682 7.58404 11.0292 7.69337 10.9562C7.80269 10.8831 7.8879 10.7793 7.93822 10.6578C7.98854 10.5364 8.00171 10.4027 7.97605 10.2737C7.9504 10.1448 7.88709 10.0263 7.79411 9.93333C7.70113 9.84035 7.58268 9.77704 7.45371 9.75139C7.32475 9.72573 7.19108 9.7389 7.0696 9.78922C6.94812 9.83954 6.84429 9.92475 6.77124 10.0341C6.69819 10.1434 6.6592 10.2719 6.6592 10.4034C6.6594 10.5797 6.7295 10.7487 6.85414 10.8733C6.97877 10.9979 7.14776 11.068 7.32402 11.0682ZM4.88637 15.2787C4.88637 15.3375 4.90972 15.3939 4.95127 15.4354C4.99283 15.477 5.0492 15.5003 5.10797 15.5003H6.4376C6.49637 15.5003 6.55274 15.477 6.5943 15.4354C6.63586 15.3939 6.6592 15.3375 6.6592 15.2787V14.1707H7.98883V15.2787C7.98883 15.3375 8.01218 15.3939 8.05374 15.4354C8.09529 15.477 8.15166 15.5003 8.21043 15.5003H9.54006C9.59883 15.5003 9.6552 15.477 9.69676 15.4354C9.73832 15.3939 9.76166 15.3375 9.76166 15.2787V13.2843H4.88637V15.2787ZM4.88637 8.40898H9.76166V12.8411H4.88637V8.40898ZM6.21599 10.4034C6.21599 10.6226 6.28098 10.8368 6.40273 11.019C6.52448 11.2012 6.69753 11.3432 6.89999 11.4271C7.10246 11.511 7.32525 11.5329 7.54018 11.4902C7.75512 11.4474 7.95255 11.3419 8.10751 11.1869C8.26247 11.032 8.36799 10.8345 8.41075 10.6196C8.4535 10.4047 8.43156 10.1819 8.34769 9.9794C8.26383 9.77694 8.12181 9.60389 7.9396 9.48214C7.75739 9.36039 7.54316 9.2954 7.32402 9.2954C7.03026 9.29575 6.74863 9.4126 6.54091 9.62032C6.33319 9.82804 6.21634 10.1097 6.21599 10.4034ZM16.1882 14.1707H15.2167C14.8458 14.171 14.483 14.0623 14.1734 13.8581C13.8638 13.6539 13.6209 13.3633 13.475 13.0223C13.2269 12.4421 12.8137 11.9475 12.2868 11.6001C11.76 11.2527 11.1426 11.0677 10.5115 11.0682H10.2049V12.3979H10.5115C10.8824 12.3976 11.2452 12.5063 11.5548 12.7105C11.8645 12.9146 12.1073 13.2053 12.2532 13.5462C12.5014 14.1265 12.9146 14.6211 13.4414 14.9685C13.9683 15.3159 14.5856 15.5008 15.2167 15.5003H16.1882C16.247 15.5003 16.3033 15.477 16.3449 15.4354C16.3864 15.3939 16.4098 15.3375 16.4098 15.2787V14.3923C16.4098 14.3335 16.3864 14.2772 16.3449 14.2356C16.3033 14.194 16.247 14.1707 16.1882 14.1707Z" fill="#E1EE50"></path>
</svg>