<svg width="20" height="20" viewBox="0 0 20 20" fill="none" xmlns="http://www.w3.org/2000/svg">
<circle cx="10.25" cy="10.0625" r="9.375" fill="#232323" fill-opacity="0.9"></circle>
<path d="M9.73333 6.57844C9.73333 6.54177 9.70773 6.49617 9.67627 6.4771C9.67627 6.4771 8.7364 5.9059 7.6 5.56723C6.4636 5.22856 5.4 5.20216 5.4 5.20216C5.36333 5.20136 5.33333 5.2307 5.33333 5.26736V12.0674C5.33333 12.1041 5.36333 12.1366 5.39973 12.1397C5.39973 12.1397 6.5112 12.2341 8.4 12.8843C8.90413 13.0579 9.67293 13.4075 9.67293 13.4075C9.70627 13.4227 9.7336 13.4051 9.7336 13.3685L9.73333 6.57844ZM10.2664 13.3685C10.2664 13.4051 10.2937 13.4227 10.3271 13.4075C10.3271 13.4075 11.0959 13.0579 11.6 12.8843C13.4888 12.2341 14.6003 12.1397 14.6003 12.1397C14.6367 12.1366 14.6667 12.1041 14.6667 12.0674V5.26736C14.6667 5.2307 14.6367 5.20136 14.6 5.2023C14.6 5.2023 13.5364 5.2287 12.4 5.56737C11.2636 5.90604 10.3237 6.47724 10.3237 6.47724C10.2923 6.4963 10.2667 6.54191 10.2667 6.57844L10.2664 13.3685ZM4.8 12.0674C4.8 12.1041 4.8 12.1641 4.80013 12.2007L4.80067 12.5558C4.8008 12.5925 4.8308 12.6251 4.8672 12.6283L5.22093 12.6595C5.25747 12.6627 5.3172 12.6681 5.35373 12.6715C5.35373 12.6715 6.43507 12.7719 8.22627 13.3886C8.64373 13.5322 9.38653 13.8622 9.38653 13.8622C9.39 13.8637 9.39313 13.8654 9.39593 13.8672C9.4202 13.883 9.41953 13.9083 9.3924 13.9267L8.596 14.467C8.56627 14.4886 8.54187 14.5062 8.54187 14.5062C8.54187 14.5062 8.51387 14.4951 8.47973 14.4815C8.47973 14.4815 8.13133 14.343 7.92253 14.2711C6.27067 13.7025 5.268 13.6015 5.268 13.6015C5.2316 13.5979 5.17173 13.5923 5.13533 13.589L4.06627 13.4946C4.03 13.4914 4 13.4589 4 13.4221V7.13404C4 7.09738 4.01867 7.04391 4.04147 7.01511C4.04147 7.01511 4.15387 6.87297 4.35947 6.66737C4.56507 6.46177 4.74867 6.3099 4.74867 6.3099C4.7768 6.28657 4.8 6.29737 4.8 6.33404V12.0674ZM10.842 14.7657C10.8539 14.7636 10.8623 14.7599 10.8673 14.755C10.8774 14.7451 10.8728 14.7307 10.8523 14.717L10.0564 14.2209C10.0534 14.219 10.0502 14.2173 10.0469 14.2158C10.019 14.2031 9.98061 14.2031 9.95266 14.2159C9.9494 14.2174 9.94628 14.219 9.94333 14.2209L9.1476 14.717C9.12706 14.7307 9.12251 14.7452 9.13269 14.7551C9.13764 14.7599 9.14608 14.7636 9.15787 14.7657C9.15787 14.7657 9.38293 14.8049 9.99973 14.8049C10.6165 14.8049 10.842 14.7657 10.842 14.7657ZM15.2 6.33404C15.2 6.29737 15.2232 6.28657 15.2515 6.3099C15.2515 6.3099 15.4351 6.46177 15.6407 6.66737C15.8463 6.87297 15.9587 7.01511 15.9587 7.01511C15.9813 7.04391 16 7.09738 16 7.13404V13.4221C16 13.4587 15.97 13.4914 15.9336 13.4946L14.8645 13.589C14.8281 13.5922 14.7683 13.5978 14.7319 13.6015C14.7319 13.6015 13.7291 13.7026 12.0773 14.2711C11.8687 14.343 11.5201 14.4815 11.5201 14.4815C11.486 14.4951 11.458 14.5062 11.458 14.5062C11.458 14.5062 11.4335 14.4886 11.4039 14.467L10.6075 13.9267C10.5802 13.9083 10.5796 13.883 10.6039 13.8673C10.6067 13.8654 10.6099 13.8637 10.6133 13.8622C10.6133 13.8622 11.3561 13.5322 11.7736 13.3886C13.5648 12.7719 14.6461 12.6715 14.6461 12.6715C14.6827 12.6682 14.7424 12.6629 14.7789 12.6595L15.1327 12.6283C15.1691 12.6251 15.1991 12.5925 15.1992 12.5558L15.1997 12.2007C15.2 12.1641 15.2 12.1041 15.2 12.0674V6.33404Z" fill="#9EB7FA"></path>
<path d="M9.39593 13.8672C9.4202 13.883 9.41953 13.9083 9.3924 13.9267L8.596 14.467C8.56627 14.4886 8.54187 14.5062 8.54187 14.5062L9.13269 14.7551C9.12251 14.7452 9.12706 14.7307 9.1476 14.717L9.94333 14.2209C9.94628 14.219 9.9494 14.2174 9.95266 14.2159L9.99987 14.1906L9.39593 13.8672Z" fill="#9EB7FA"></path>
<path d="M10.8523 14.717C10.8728 14.7307 10.8774 14.7451 10.8673 14.755L11.458 14.5062C11.458 14.5062 11.4335 14.4886 11.4039 14.467L10.6075 13.9267C10.5802 13.9083 10.5796 13.883 10.6039 13.8673L9.99987 14.1906L10.0469 14.2158C10.0502 14.2173 10.0534 14.219 10.0564 14.2209L10.8523 14.717Z" fill="#9EB7FA"></path>
<path d="M9.99987 14.1906L9.95266 14.2159C9.98061 14.2031 10.019 14.2031 10.0469 14.2158L9.99987 14.1906Z" fill="#9EB7FA"></path>
</svg>