<svg width="70" height="32" viewBox="0 0 70 32" fill="none" xmlns="http://www.w3.org/2000/svg">
<g clip-path="url(#clip0_1184_323080)">
<path d="M29.0193 12.04H6.88885V2.31659L4.57227 0V14.3597H31.3358V7.10524L29.0193 4.78554V12.04Z" fill="white"></path>
<path d="M51.5351 29.3447V29.3415H55.1774L55.0095 20.327L53.8838 20.9334C53.9067 22.2641 53.9346 23.6319 53.9624 24.9946C53.9837 26.036 54.0049 27.0745 54.0237 28.0915L47.3048 28.0915L47.2052 28.0913V28.0074C47.2052 26.6019 46.9658 24.646 46.8539 23.8873L45.7282 24.4905C45.8806 25.4887 45.9957 27.2051 46.0081 28.0913H43.3401L43.2388 28.0916C42.3246 27.9361 41.6779 27.0499 41.0871 26.1792C40.4247 25.209 39.778 24.2793 38.7238 24.2793C38.5248 24.2793 38.3569 24.3228 38.3569 24.3228L37.1038 25.8403C37.5702 25.6879 37.878 25.6164 38.0335 25.6164C38.9633 25.6164 39.5945 26.3907 40.1853 27.1214L40.2523 27.2057C40.5191 27.5417 40.7711 27.859 41.084 28.0916H35.0235L34.924 28.0913V28.0074C34.924 26.6019 34.6846 24.646 34.5726 23.8873L33.447 24.4905C33.5993 25.4887 33.7144 27.2051 33.7268 28.0913L26.953 28.0915V25.4484C26.8246 25.5144 26.6398 25.6162 26.4657 25.7122L26.4647 25.7128C26.3358 25.7838 26.2127 25.8517 26.1228 25.8993C26.0196 25.9766 25.8319 26.0778 25.6814 26.1589L25.6439 26.1791C25.6719 26.5896 25.7279 28.4024 25.7279 29.2606H25.731C25.731 30.3987 25.2086 31.3969 23.7751 31.8478L23.4517 32.0032C26.4772 31.9877 26.8971 30.6258 26.9406 29.3447H51.5351Z" fill="white"></path>
<path d="M23.2917 20.3301L22.166 20.9489H22.1691L22.3246 28.0355C22.3246 29.0212 22.421 29.4005 22.8439 29.4005C23.0242 29.4005 23.3072 29.3166 23.6866 29.1331C23.4521 28.8865 23.4472 28.625 23.3012 20.8394L23.2917 20.3301Z" fill="white"></path>
<path d="M16.4297 28.0915C14.8532 28.0915 14.3059 27.0653 14.3059 25.6878C14.3059 25.38 14.3339 25.0815 14.3774 24.7456C14.1784 24.9726 13.7151 26.3066 13.7151 27.1648C13.7151 28.2345 14.2375 29.3446 16.2898 29.3446H20.5374C20.5809 28.9373 20.6089 28.4149 20.6089 28.0075C20.6089 26.602 20.3695 24.6461 20.2575 23.8874L19.1319 24.4907C19.2843 25.4888 19.3993 27.2053 19.4118 28.0915H16.4297Z" fill="white"></path>
<path d="M15.472 23.281C15.472 22.8892 15.7829 22.5783 16.1623 22.5783C16.5417 22.5783 16.8651 22.9017 16.8651 23.281C16.8651 23.6604 16.5448 23.9558 16.1623 23.9558C15.7798 23.9558 15.472 23.6728 15.472 23.281Z" fill="white"></path>
<path d="M17.232 23.281C17.232 22.8892 17.5398 22.5783 17.9347 22.5783C18.3141 22.5783 18.6095 22.9017 18.6095 23.281C18.6095 23.6604 18.3296 23.9558 17.9347 23.9558C17.5398 23.9558 17.232 23.6728 17.232 23.281Z" fill="white"></path>
<path d="M32.0664 30.495C31.6714 30.495 31.376 30.8059 31.376 31.1853C31.376 31.5647 31.6714 31.8756 32.0664 31.8756C32.4613 31.8756 32.7411 31.5647 32.7411 31.1853C32.7411 30.8059 32.4457 30.495 32.0664 30.495Z" fill="white"></path>
<path d="M33.8108 30.495C33.4314 30.495 33.1205 30.8059 33.1205 31.1853C33.1205 31.5647 33.4314 31.8756 33.8108 31.8756C34.1902 31.8756 34.5135 31.5647 34.5135 31.1853C34.5135 30.8059 34.2026 30.495 33.8108 30.495Z" fill="white"></path>
<path d="M45.4173 30.495C44.9819 30.495 44.643 30.8184 44.643 31.2537C44.643 31.6611 44.9788 32 45.4173 32C45.8246 32 46.176 31.6611 46.176 31.2537C46.176 30.8184 45.8246 30.495 45.4173 30.495Z" fill="white"></path>
<path d="M57.8631 20.3301L56.7374 20.9489H56.7406L56.896 28.0355C56.896 29.0212 56.9924 29.4005 57.4153 29.4005C57.5988 29.4005 57.8786 29.3166 58.258 29.1331C58.0236 28.8865 58.0187 28.625 57.8726 20.8396L57.8631 20.3301Z" fill="white"></path>
<path d="M63.9546 12.04V4.78554L63.9609 4.78865L66.2774 7.10524V14.3597H41.8336V14.5214C41.8336 17.4195 39.4859 19.7672 36.5878 19.7672V17.4506C38.2017 17.4506 39.517 16.1353 39.517 14.5214V4.78554L41.8336 7.10213V12.04H54.6883V7.17987L57.0049 9.49645V12.04H59.3215V5.9827L61.6381 8.29929V12.04H63.9546Z" fill="white"></path>
<path d="M36.5808 2.31659L34.2642 0V14.3597H36.5808V2.31659Z" fill="white"></path>
<path d="M24.3825 17.4506H31.3354V19.7672H26.6991L24.3825 17.4506Z" fill="white"></path>
</g>
<defs>
<clipPath id="clip0_1184_323080">
<rect width="69.7143" height="32" fill="white"></rect>
</clipPath>
</defs>
</svg>