<svg width="22" height="22" viewBox="0 0 21 20" fill="none" xmlns="http://www.w3.org/2000/svg">
<path d="M10.5005 18.625C15.5056 18.625 19.563 14.5676 19.563 9.56255C19.563 4.55748 15.5056 0.5 10.5005 0.5C5.49543 0.5 1.43799 4.55748 1.43799 9.56255C1.43799 14.5676 5.49543 18.625 10.5005 18.625Z" fill="#FCB270" stroke="white" stroke-width="0.9375"></path>
<path d="M14.3966 5.88366H12.9356C12.753 4.4695 11.718 3.3125 10.5005 3.3125C9.28298 3.3125 8.24807 4.40522 8.06544 5.88366H6.60441L5.81299 13.4687H15.188L14.3966 5.88366ZM10.5005 3.95524C11.4137 3.95524 12.205 4.72666 12.3268 5.81942H8.6742C8.85683 4.79094 9.58736 3.95524 10.5005 3.95524ZM12.9356 7.23358C12.9437 7.57126 12.8887 7.90733 12.7737 8.22256C12.6588 8.53779 12.4861 8.82594 12.2656 9.07069C12.0451 9.31543 11.7811 9.51191 11.4887 9.64889C11.1963 9.78587 10.8812 9.86065 10.5614 9.86899H10.5005C9.85469 9.86899 9.23531 9.5981 8.77865 9.1159C8.32199 8.63371 8.06544 7.97975 8.06544 7.29783V7.105H8.6742V7.23358C8.6742 8.32634 9.52649 9.22625 10.5005 9.22625C11.4745 9.22625 12.3268 8.32634 12.3268 7.23358V7.105H12.9356V7.23358Z" fill="white"></path>
</svg>