<svg width="63" height="95" viewBox="0 0 63 95" fill="none" xmlns="http://www.w3.org/2000/svg">
<path d="M31.5965 95C31.5965 95 46.4694 75.3822 57.8321 52.6057C69.1948 29.8291 60.6264 10.904 43.7432 2.5305C28.9354 -4.02783 11.1549 2.53051 3.69273 17.9371C-1.08325 29.4833 -1.5163 34.1351 4.10595 49.2844C9.72819 64.4337 31.5965 95 31.5965 95Z" fill="#121823" fill-opacity="0.6"></path>
<path d="M27.5365 34.7043V44.0819C27.5365 45.2574 27.2159 46.148 26.5747 46.7536C25.9424 47.3592 25.0429 47.662 23.8763 47.662C23.2707 47.662 22.7364 47.5773 22.2733 47.4081C21.8191 47.2389 21.4361 46.9985 21.1245 46.6868C20.8217 46.384 20.5901 46.0189 20.4298 45.5914C20.2784 45.1728 20.2027 44.7053 20.2027 44.1888V42.1316H21.2848V43.9617C21.2848 45.6983 22.1575 46.5666 23.903 46.5666C24.8025 46.5666 25.4526 46.3706 25.8533 45.9788C26.2541 45.5958 26.4545 44.9591 26.4545 44.0685V34.7043H27.5365ZM34.1371 44.2422C34.1015 44.7854 33.9857 45.2352 33.7898 45.5914C33.6028 45.9476 33.3445 46.2326 33.015 46.4463C32.6855 46.6601 32.2892 46.8115 31.8261 46.9005C31.3719 46.9896 30.8643 47.0341 30.3033 47.0341H29.7422V45.9254H30.1563C30.5749 45.9254 30.9578 45.9031 31.3052 45.8586C31.6525 45.8229 31.9508 45.7428 32.2002 45.6181C32.4584 45.5023 32.6588 45.3331 32.8013 45.1105C32.9527 44.8878 33.0328 44.5984 33.0418 44.2422H31.5322C31.1671 44.2422 30.8287 44.2021 30.517 44.122C30.2142 44.0418 29.947 43.9127 29.7155 43.7346C29.4929 43.5475 29.3147 43.3071 29.1812 43.0132C29.0565 42.7193 28.9941 42.3542 28.9941 41.9178C28.9941 41.5527 29.052 41.1965 29.1678 40.8491C29.2925 40.5018 29.4661 40.1946 29.6888 39.9274C29.9203 39.6602 30.1964 39.4465 30.517 39.2862C30.8465 39.117 31.2206 39.0324 31.6391 39.0324C32.1022 39.0324 32.4941 39.117 32.8147 39.2862C33.1353 39.4465 33.3935 39.6781 33.5894 39.9808C33.7943 40.2836 33.9412 40.6488 34.0303 41.0762C34.1193 41.5037 34.1639 41.9802 34.1639 42.5056V43.1334H35.099C35.4552 43.1334 35.6333 43.3115 35.6333 43.6678C35.6333 43.8904 35.5888 44.0418 35.4997 44.122C35.4196 44.2021 35.286 44.2422 35.099 44.2422H34.1371ZM30.0628 41.8109C30.0628 42.2651 30.192 42.5991 30.4502 42.8128C30.7174 43.0266 31.1048 43.1334 31.6124 43.1334H33.0418V42.2518C33.0418 41.5928 32.9304 41.0673 32.7078 40.6755C32.4852 40.2836 32.1022 40.0877 31.559 40.0877C31.3007 40.0877 31.0781 40.1411 30.891 40.248C30.704 40.346 30.5482 40.4796 30.4235 40.6488C30.3077 40.8091 30.2187 40.9916 30.1563 41.1965C30.094 41.4013 30.0628 41.6061 30.0628 41.8109ZM35.1005 44.2422C34.7443 44.2422 34.5662 44.0641 34.5662 43.7078C34.5662 43.4852 34.6107 43.3338 34.6998 43.2537C34.7799 43.1735 34.9135 43.1334 35.1005 43.1334H35.6482C35.7551 43.1334 35.8664 43.1201 35.9822 43.0934C36.0979 43.0666 36.2137 43.0088 36.3295 42.9197C36.4453 42.8306 36.5566 42.7104 36.6635 42.559C36.7792 42.3987 36.8861 42.185 36.9841 41.9178C37.1889 41.3479 37.4026 40.8892 37.6253 40.5419C37.8568 40.1857 38.0884 39.9141 38.3199 39.727C38.5604 39.5311 38.8008 39.402 39.0413 39.3396C39.2906 39.2773 39.5355 39.2461 39.776 39.2461C40.1144 39.2461 40.4261 39.3129 40.7111 39.4465C40.996 39.5712 41.241 39.7537 41.4458 39.9942C41.6595 40.2257 41.8243 40.5063 41.94 40.8358C42.0647 41.1564 42.1271 41.5171 42.1271 41.9178C42.1271 42.6837 41.94 43.2937 41.566 43.7479C41.2009 44.1932 40.6354 44.4158 39.8695 44.4158C39.4509 44.4158 39.0279 44.3446 38.6004 44.2021C38.173 44.0596 37.7321 43.8192 37.2779 43.4808C37.1622 43.6589 37.0419 43.8014 36.9173 43.9082C36.8015 44.0062 36.6768 44.0819 36.5432 44.1353C36.4096 44.1798 36.2716 44.211 36.1291 44.2288C35.9866 44.2377 35.8352 44.2422 35.6749 44.2422H35.1005ZM41.0183 41.8777C41.0183 41.6818 40.9871 41.4903 40.9248 41.3033C40.8714 41.1163 40.7868 40.9516 40.671 40.8091C40.5641 40.6666 40.4305 40.5553 40.2702 40.4751C40.1099 40.386 39.9229 40.3415 39.7092 40.3415C39.3351 40.3415 38.9923 40.5063 38.6806 40.8358C38.3689 41.1653 38.075 41.7442 37.7989 42.5724C38.1284 42.7861 38.4535 42.9598 38.7741 43.0934C39.1036 43.218 39.4376 43.2804 39.776 43.2804C40.15 43.2804 40.4484 43.1735 40.671 42.9598C40.9025 42.746 41.0183 42.3854 41.0183 41.8777ZM27.2849 57.2422H19.1897C18.6732 57.2422 18.2413 57.2066 17.894 57.1353C17.5555 57.0641 17.2795 56.9528 17.0657 56.8014C16.8609 56.6411 16.714 56.4407 16.6249 56.2002C16.5358 55.9509 16.4913 55.6481 16.4913 55.2919V53.2213H17.5867V54.8911C17.5867 55.1672 17.6179 55.3898 17.6802 55.559C17.7515 55.7193 17.8672 55.844 18.0275 55.9331C18.1878 56.0132 18.406 56.0666 18.6821 56.0934C18.9582 56.1201 19.3099 56.1334 19.7374 56.1334H26.1895V52.0992H27.2849V57.2422ZM21.3404 59.2727C21.3404 59.0767 21.4072 58.9075 21.5408 58.7651C21.6833 58.6315 21.8525 58.5647 22.0484 58.5647C22.2444 58.5647 22.4091 58.6315 22.5427 58.7651C22.6852 58.9075 22.7564 59.0767 22.7564 59.2727C22.7564 59.4686 22.6852 59.6333 22.5427 59.7669C22.4091 59.9094 22.2444 59.9807 22.0484 59.9807C21.8525 59.9807 21.6833 59.9094 21.5408 59.7669C21.4072 59.6333 21.3404 59.4686 21.3404 59.2727ZM32.3736 57.2422C32.0797 57.2422 31.8348 57.1754 31.6389 57.0418C31.4429 56.9082 31.296 56.7524 31.198 56.5743C31.198 57.2155 31.158 57.7543 31.0778 58.1906C30.9976 58.6359 30.8507 58.9921 30.637 59.2593C30.4321 59.5354 30.1427 59.7313 29.7687 59.8471C29.3946 59.9718 28.9093 60.0341 28.3126 60.0341V58.9254C28.749 58.9254 29.0874 58.8764 29.3278 58.7784C29.5772 58.6894 29.7598 58.538 29.8755 58.3242C30.0002 58.1194 30.0715 57.8522 30.0893 57.5227C30.116 57.2021 30.1294 56.8103 30.1294 56.3472V52.7671H31.2114V54.664C31.2114 55.1182 31.2915 55.4789 31.4518 55.746C31.621 56.0043 31.9283 56.1334 32.3736 56.1334C32.7298 56.1334 32.9079 56.3115 32.9079 56.6678C32.9079 56.8904 32.8634 57.0418 32.7743 57.122C32.6942 57.2021 32.5606 57.2422 32.3736 57.2422ZM32.3675 57.2422C32.0113 57.2422 31.8332 57.0641 31.8332 56.7078C31.8332 56.4852 31.8777 56.3338 31.9668 56.2537C32.0469 56.1735 32.1805 56.1334 32.3675 56.1334H32.9686C33.3071 56.1334 33.641 56.1112 33.9705 56.0666C34.3 56.0221 34.6162 55.9509 34.919 55.8529L33.2492 53.956C33.2759 53.858 33.3071 53.7556 33.3427 53.6488C33.3872 53.5419 33.4317 53.4395 33.4763 53.3415C33.5297 53.2347 33.5787 53.1411 33.6232 53.061C33.6766 52.9719 33.7301 52.9007 33.7835 52.8473C34.0685 52.5623 34.4114 52.3352 34.8121 52.166C35.2218 51.9968 35.6626 51.9122 36.1346 51.9122C36.5264 51.9122 36.8649 51.9611 37.1498 52.0591C37.4437 52.1482 37.6842 52.2728 37.8712 52.4331C38.0671 52.5845 38.2096 52.7627 38.2987 52.9675C38.3966 53.1634 38.4456 53.3638 38.4456 53.5686C38.4456 54.0584 38.3031 54.5171 38.0181 54.9445C37.7421 55.372 37.368 55.7505 36.896 56.08C37.0652 56.1156 37.2879 56.1334 37.564 56.1334H39.4341C39.7904 56.1334 39.9685 56.3115 39.9685 56.6678C39.9685 56.8904 39.9239 57.0418 39.8349 57.122C39.7547 57.2021 39.6212 57.2422 39.4341 57.2422H37.2033C36.945 57.2422 36.6957 57.211 36.4552 57.1487C36.2237 57.0774 35.9787 56.9305 35.7205 56.7078C35.3019 56.8771 34.8655 57.0106 34.4114 57.1086C33.9572 57.1977 33.4941 57.2422 33.0221 57.2422H32.3675ZM36.0678 52.9541C35.7116 52.9541 35.3732 53.0254 35.0526 53.1679C34.7409 53.3104 34.4915 53.4974 34.3045 53.7289L35.9342 55.4522C36.3617 55.2384 36.7046 54.9846 36.9628 54.6907C37.23 54.3968 37.3636 54.0851 37.3636 53.7556C37.3636 53.5508 37.2567 53.3682 37.043 53.2079C36.8381 53.0387 36.5131 52.9541 36.0678 52.9541ZM39.4381 57.2422C39.0819 57.2422 38.9038 57.0641 38.9038 56.7078C38.9038 56.4852 38.9483 56.3338 39.0373 56.2537C39.1175 56.1735 39.2511 56.1334 39.4381 56.1334H41.522V47.7043H42.6174V57.2422H39.4381ZM45.5779 47.7043V57.2422H44.4825V47.7043H45.5779Z" fill="#EDEDED"></path>
<path fill-rule="evenodd" clip-rule="evenodd" d="M35.9228 13.5492H38.4211L39.75 25.5H23.75L25.1108 13.5492H27.6091C27.9174 11.2294 29.6929 9.5 31.7659 9.5C33.839 9.5 35.6145 11.3227 35.9228 13.5492ZM34.8915 13.4353C34.6789 11.7162 33.3287 10.5045 31.7659 10.5045C30.2032 10.5045 28.9593 11.8301 28.6404 13.4353H34.8915ZM31.8616 19.8146C34.1473 19.7214 36.0184 17.8987 35.9228 15.6722H35.9653V15.465H34.9128V15.6722C34.9128 17.4016 33.4669 18.81 31.7872 18.81C30.1075 18.81 28.6616 17.4016 28.6616 15.6722V15.465H27.6091V15.7654C27.6091 17.9919 29.4802 19.8146 31.7659 19.8146H31.8616Z" fill="#EDEDED"></path>
</svg>