<svg width="63" height="95" viewBox="0 0 63 95" fill="none" xmlns="http://www.w3.org/2000/svg">
<path d="M31.5965 95C31.5965 95 46.4694 75.3822 57.8321 52.6057C69.1948 29.8291 60.6264 10.904 43.7432 2.5305C28.9354 -4.02783 11.1549 2.53051 3.69273 17.9371C-1.08325 29.4833 -1.5163 34.1351 4.10595 49.2844C9.72819 64.4337 31.5965 95 31.5965 95Z" fill="#121823" fill-opacity="0.6"></path>
<path fill-rule="evenodd" clip-rule="evenodd" d="M24.9547 19.1419H23.5002L23.5 19.142V25H39.5L39.5 19.142H38.6473V17.298H38.0455C38.0942 14.1828 36.1347 12.584 34.1163 12.5015L33.9546 11.1534C34.2259 11.2251 34.561 11.1488 34.9163 10.8302C33.7673 11.196 33.1928 9.94158 34.1024 9.15758C32.9727 9.6061 33.1894 10.8831 33.8947 11.1349L33.7305 12.5041C31.7311 12.6136 29.7956 14.2116 29.8198 17.298H29.2681V19.142H27.312V18.0573L26.66 16.9184V14.8574L27.0612 14.2066H26.66V12.4168L27.0612 11.766H26.66V10.6813L26.1083 9L25.5566 10.6813V11.766H25.1553L25.5566 12.4168V14.2066H25.1553L25.5566 14.8574V16.9725L24.9045 18.0572L24.9547 19.1419ZM37.7445 19.0335V18.3284C37.7445 17.6233 36.7915 17.6233 36.7915 18.3284V19.0335H37.7445ZM35.5878 19.0335V18.3284C35.5878 17.6233 34.6349 17.6233 34.6349 18.3284V19.0335H35.5878ZM33.2806 19.0335V18.3284C33.2806 17.6233 32.3276 17.6233 32.3276 18.3284V19.0335H33.2806ZM31.1239 19.0335V18.3284C31.1239 17.6233 30.171 17.6233 30.171 18.3284V19.0335H31.1239ZM26.4595 13.8268V13.3386C26.4595 12.8505 25.8075 12.8505 25.8075 13.3386V13.8268H26.4595ZM38.3969 24.1863L38.3969 23.8603C38.3969 21.9078 35.6884 21.9078 35.6884 23.8603V24.1863H38.3969ZM34.6852 24.1863V23.8603C34.6852 21.9078 32.0269 21.9078 32.0269 23.8603V24.1863H34.6852ZM31.0238 24.1863V23.8603C31.0238 21.9078 28.3655 21.9078 28.3655 23.8603V24.1863H31.0238ZM27.3623 24.1863V23.8603C27.3623 21.9078 24.6538 21.9078 24.6538 23.8603V24.1863H27.3623Z" fill="#EDEDED"></path>
<path d="M20.7704 38.3711C20.4679 38.3711 20.1606 38.3995 19.8487 38.4562C19.5367 38.5223 19.2484 38.6311 18.9837 38.7823C18.7285 38.943 18.5158 39.1604 18.3456 39.4346C18.1849 39.7182 18.1046 40.0774 18.1046 40.5122C18.1046 40.9187 18.1755 41.2685 18.3173 41.5615C18.4685 41.8546 18.6718 42.0956 18.927 42.2847C19.1822 42.4737 19.48 42.6108 19.8203 42.6959C20.1606 42.7904 20.5199 42.8377 20.898 42.8377C21.2856 42.8377 21.6826 42.8046 22.0891 42.7384C22.4956 42.6817 22.9729 42.5257 23.5212 42.2705L23.9891 43.1638C23.7245 43.3529 23.4409 43.5041 23.1384 43.6176C22.8453 43.731 22.5617 43.8161 22.2876 43.8728C22.0134 43.939 21.7582 43.9815 21.5219 44.0004C21.2856 44.0288 21.0918 44.043 20.9405 44.043C20.3355 44.043 19.7825 43.9721 19.2815 43.8303C18.7899 43.6885 18.3645 43.4758 18.0053 43.1922C17.6556 42.9086 17.3814 42.5541 17.1829 42.1287C16.9844 41.7033 16.8851 41.207 16.8851 40.6398C16.8851 39.9592 17.0033 39.3968 17.2396 38.9525C17.476 38.5082 17.7785 38.1584 18.1471 37.9032C18.5253 37.6385 18.9459 37.4541 19.4091 37.3502C19.8723 37.2462 20.3308 37.1942 20.7845 37.1942H23.8048C23.8048 36.5892 23.7245 36.0787 23.5638 35.6628C23.4031 35.2468 23.1856 34.9113 22.9115 34.656C22.6373 34.3913 22.3159 34.2023 21.9473 34.0888C21.5881 33.9659 21.2005 33.9045 20.7845 33.9045C20.5104 33.9045 20.2174 33.9329 19.9054 33.9896C19.6029 34.0368 19.3524 34.0888 19.1539 34.1456V33.0112C19.3429 32.9545 19.5935 32.893 19.9054 32.8269C20.2174 32.7512 20.5577 32.7134 20.9263 32.7134C21.6353 32.7134 22.245 32.8316 22.7555 33.0679C23.266 33.3042 23.6866 33.6304 24.0175 34.0463C24.3578 34.4528 24.6083 34.9302 24.769 35.4784C24.9297 36.0173 25.0148 36.5892 25.0243 37.1942H25.9176C26.2957 37.1942 26.4848 37.3832 26.4848 37.7614C26.4848 37.9977 26.4375 38.1584 26.343 38.2435C26.2579 38.3286 26.1161 38.3711 25.9176 38.3711H20.7704ZM20.5293 40.5264C20.5293 40.3184 20.6002 40.1388 20.742 39.9876C20.8933 39.8458 21.0729 39.7749 21.2808 39.7749C21.4888 39.7749 21.6637 39.8458 21.8055 39.9876C21.9567 40.1388 22.0324 40.3184 22.0324 40.5264C22.0324 40.7344 21.9567 40.9093 21.8055 41.051C21.6637 41.2023 21.4888 41.2779 21.2808 41.2779C21.0729 41.2779 20.8933 41.2023 20.742 41.051C20.6002 40.9093 20.5293 40.7344 20.5293 40.5264ZM26.4099 37.1942C26.7218 37.1942 26.9865 37.1847 27.2039 37.1658C27.4214 37.1469 27.5915 37.1044 27.7144 37.0382C27.8467 36.9626 27.9413 36.8586 27.998 36.7263C28.0547 36.5845 28.0831 36.3954 28.0831 36.1591V33.6209H29.2458V35.6344C29.2458 35.8707 29.26 36.0882 29.2883 36.2867C29.3167 36.4757 29.3829 36.6365 29.4869 36.7688C29.5908 36.9011 29.7374 37.0051 29.9264 37.0807C30.1249 37.1564 30.3896 37.1942 30.7205 37.1942C30.9285 37.1942 31.1081 37.1847 31.2593 37.1658C31.4106 37.1469 31.5382 37.1044 31.6422 37.0382C31.7461 36.9626 31.8218 36.8586 31.869 36.7263C31.9258 36.5845 31.9541 36.3954 31.9541 36.1591V33.6209H33.1168V35.6344C33.1168 35.8707 33.131 36.0882 33.1594 36.2867C33.1972 36.4757 33.2634 36.6365 33.3579 36.7688C33.4619 36.9011 33.599 37.0051 33.7691 37.0807C33.9487 37.1564 34.1803 37.1942 34.4639 37.1942C34.6246 37.1942 34.7711 37.1847 34.9035 37.1658C35.0358 37.1469 35.1493 37.1044 35.2438 37.0382C35.3383 36.9626 35.4092 36.8586 35.4565 36.7263C35.5132 36.5845 35.5416 36.3954 35.5416 36.1591V32.9119H36.7043V35.6344C36.7043 35.8707 36.7185 36.0882 36.7468 36.2867C36.7846 36.4757 36.8508 36.6365 36.9454 36.7688C37.0399 36.9011 37.1675 37.0051 37.3282 37.0807C37.4889 37.1564 37.6921 37.1942 37.9379 37.1942C38.3161 37.1942 38.5051 37.3832 38.5051 37.7614C38.5051 37.9977 38.4578 38.1584 38.3633 38.2435C38.2782 38.3286 38.1364 38.3711 37.9379 38.3711C37.5693 38.3711 37.2715 38.286 37.0446 38.1159C36.8177 37.9363 36.6665 37.7141 36.5909 37.4494C36.5058 37.6479 36.3876 37.8086 36.2364 37.9315C36.0851 38.045 35.9244 38.1348 35.7543 38.2009C35.5841 38.2671 35.4187 38.3144 35.258 38.3427C35.0973 38.3616 34.9602 38.3711 34.8468 38.3711C34.5348 38.3711 34.2701 38.3427 34.0527 38.286C33.8447 38.2293 33.6699 38.1584 33.5281 38.0733C33.3863 37.9788 33.2728 37.8795 33.1877 37.7755C33.1121 37.6621 33.0507 37.5534 33.0034 37.4494C32.8333 37.837 32.5686 38.0875 32.2094 38.2009C31.8596 38.3144 31.4389 38.3711 30.9474 38.3711C30.6165 38.3711 30.3376 38.3475 30.1108 38.3002C29.8933 38.2435 29.7137 38.1726 29.5719 38.0875C29.4301 37.993 29.3167 37.889 29.2316 37.7755C29.1465 37.6621 29.0756 37.5487 29.0189 37.4352C28.9339 37.6338 28.8251 37.7945 28.6928 37.9173C28.5699 38.0308 28.4045 38.1253 28.1965 38.2009C27.998 38.2671 27.7475 38.3144 27.445 38.3427C27.1519 38.3616 26.7975 38.3711 26.3815 38.3711H25.9136C25.5355 38.3711 25.3464 38.182 25.3464 37.8039C25.3464 37.5676 25.3937 37.4069 25.4882 37.3218C25.5733 37.2367 25.7151 37.1942 25.9136 37.1942H26.4099ZM37.9469 38.3711C37.5688 38.3711 37.3797 38.182 37.3797 37.8039C37.3797 37.5676 37.427 37.4069 37.5215 37.3218C37.6066 37.2367 37.7484 37.1942 37.9469 37.1942H38.5283C38.6417 37.1942 38.7599 37.18 38.8828 37.1516C39.0056 37.1233 39.1285 37.0618 39.2514 36.9673C39.3743 36.8728 39.4925 36.7452 39.6059 36.5845C39.7288 36.4143 39.8422 36.1874 39.9462 35.9038C40.1637 35.2988 40.3905 34.812 40.6269 34.4433C40.8726 34.0652 41.1184 33.7769 41.3642 33.5784C41.6194 33.3704 41.8747 33.2333 42.1299 33.1672C42.3946 33.101 42.6545 33.0679 42.9098 33.0679C43.269 33.0679 43.5999 33.1388 43.9024 33.2806C44.2049 33.4129 44.4648 33.6067 44.6822 33.862C44.9091 34.1077 45.084 34.4055 45.2069 34.7553C45.3392 35.0956 45.4054 35.4784 45.4054 35.9038C45.4054 36.7168 45.2069 37.3643 44.8098 37.8464C44.4223 38.3191 43.822 38.5554 43.009 38.5554C42.5647 38.5554 42.1157 38.4798 41.662 38.3286C41.2082 38.1773 40.7403 37.9221 40.2582 37.5629C40.1353 37.7519 40.0077 37.9032 39.8753 38.0166C39.7524 38.1206 39.6201 38.2009 39.4783 38.2577C39.3365 38.3049 39.19 38.338 39.0387 38.3569C38.8875 38.3664 38.7268 38.3711 38.5566 38.3711H37.9469ZM44.2285 35.8613C44.2285 35.6533 44.1954 35.4501 44.1292 35.2516C44.0725 35.0531 43.9827 34.8782 43.8598 34.7269C43.7464 34.5757 43.6046 34.4575 43.4344 34.3724C43.2643 34.2779 43.0658 34.2306 42.8389 34.2306C42.4418 34.2306 42.0779 34.4055 41.747 34.7553C41.4162 35.105 41.1042 35.7195 40.8112 36.5986C41.161 36.8255 41.506 37.0098 41.8463 37.1516C42.1961 37.284 42.5506 37.3502 42.9098 37.3502C43.3068 37.3502 43.6235 37.2367 43.8598 37.0098C44.1056 36.783 44.2285 36.4001 44.2285 35.8613ZM15.2649 50.6702C15.2649 51.0672 15.3878 51.3886 15.6336 51.6344C15.8888 51.8802 16.2906 52.0031 16.8388 52.0031C17.0468 52.0031 17.2689 51.9795 17.5053 51.9322C17.7511 51.8849 17.9685 51.8235 18.1575 51.7479V49.2239H16.9097C16.456 49.2239 16.0684 49.342 15.747 49.5784C15.4256 49.8052 15.2649 50.1692 15.2649 50.6702ZM16.7396 53.2084C16.5127 53.2084 16.248 53.1753 15.9455 53.1091C15.6525 53.0429 15.3689 52.9248 15.0947 52.7546C14.8301 52.575 14.6032 52.3292 14.4141 52.0173C14.2251 51.6959 14.1305 51.2799 14.1305 50.7695C14.1305 50.259 14.2203 49.8336 14.3999 49.4933C14.5795 49.1435 14.8111 48.8599 15.0947 48.6425C15.3783 48.4251 15.6903 48.2691 16.0306 48.1746C16.3804 48.0801 16.7254 48.0328 17.0657 48.0328H19.3203V52.1024C19.3203 52.4994 19.3817 52.783 19.5046 52.9531C19.6275 53.1138 19.9016 53.1942 20.327 53.1942H20.6673C21.0455 53.1942 21.2345 53.3832 21.2345 53.7614C21.2345 53.9977 21.1873 54.1584 21.0927 54.2435C21.0076 54.3286 20.8659 54.3711 20.6673 54.3711H20.1852C19.9394 54.3711 19.7031 54.3522 19.4762 54.3144C19.2588 54.2671 19.0603 54.1915 18.8807 54.0875C18.7105 53.9741 18.564 53.8275 18.4411 53.6479C18.3182 53.4683 18.2379 53.2367 18.2001 52.9531C17.9921 53.0288 17.7558 53.0902 17.4911 53.1375C17.2359 53.1847 16.9854 53.2084 16.7396 53.2084ZM15.5768 45.4521C15.5768 45.2441 15.6477 45.0692 15.7895 44.9274C15.9408 44.7762 16.1204 44.7006 16.3284 44.7006C16.5363 44.7006 16.7112 44.7762 16.853 44.9274C17.0043 45.0692 17.0799 45.2441 17.0799 45.4521C17.0799 45.6601 17.0043 45.8397 16.853 45.9909C16.7112 46.1327 16.5363 46.2036 16.3284 46.2036C16.1204 46.2036 15.9408 46.1327 15.7895 45.9909C15.6477 45.8397 15.5768 45.6601 15.5768 45.4521ZM17.4202 45.4521C17.4202 45.2441 17.4911 45.0692 17.6329 44.9274C17.7841 44.7762 17.9638 44.7006 18.1717 44.7006C18.3797 44.7006 18.5546 44.7762 18.6964 44.9274C18.8476 45.0692 18.9232 45.2441 18.9232 45.4521C18.9232 45.6601 18.8476 45.8397 18.6964 45.9909C18.5546 46.1327 18.3797 46.2036 18.1717 46.2036C17.9638 46.2036 17.7841 46.1327 17.6329 45.9909C17.4911 45.8397 17.4202 45.6601 17.4202 45.4521ZM29.3859 54.3711C29.0267 54.3711 28.7148 54.3002 28.4501 54.1584C28.1854 54.0166 27.9727 53.7755 27.812 53.4352V53.4069C27.6324 53.7661 27.3677 54.0497 27.0179 54.2577C26.6776 54.4562 26.2475 54.5554 25.7276 54.5554C25.2833 54.5554 24.8343 54.4798 24.3805 54.3286C23.9268 54.1773 23.4588 53.9221 22.9767 53.5629C22.8538 53.7519 22.7262 53.9032 22.5939 54.0166C22.471 54.1206 22.3387 54.2009 22.1969 54.2577C22.0551 54.3049 21.9085 54.338 21.7573 54.3569C21.606 54.3664 21.4453 54.3711 21.2752 54.3711H20.6655C20.2873 54.3711 20.0983 54.182 20.0983 53.8039C20.0983 53.5676 20.1455 53.4069 20.2401 53.3218C20.3251 53.2367 20.4669 53.1942 20.6655 53.1942H21.2468C21.3603 53.1942 21.4784 53.18 21.6013 53.1516C21.7242 53.1233 21.8471 53.0618 21.97 52.9673C22.0929 52.8728 22.211 52.7452 22.3245 52.5845C22.4474 52.4143 22.5608 52.1874 22.6648 51.9038C22.8822 51.2988 23.1091 50.812 23.3454 50.4433C23.5912 50.0652 23.837 49.7769 24.0827 49.5784C24.338 49.3704 24.5932 49.2333 24.8485 49.1672C25.1131 49.101 25.3731 49.0679 25.6283 49.0679C25.9875 49.0679 26.3184 49.1388 26.6209 49.2806C26.9234 49.4129 27.1834 49.6067 27.4008 49.862C27.6277 50.1077 27.8025 50.4055 27.9254 50.7553C28.0578 51.0956 28.1239 51.4784 28.1239 51.9038C28.1239 51.97 28.1192 52.0362 28.1098 52.1024C28.1098 52.1591 28.1098 52.2158 28.1098 52.2725C28.2043 52.575 28.3414 52.8066 28.521 52.9673C28.71 53.1186 28.9984 53.1942 29.3859 53.1942C29.7641 53.1942 29.9531 53.3832 29.9531 53.7614C29.9531 53.9977 29.9059 54.1584 29.8113 54.2435C29.7262 54.3286 29.5845 54.3711 29.3859 54.3711ZM26.947 51.8613C26.947 51.6533 26.914 51.4501 26.8478 51.2516C26.7911 51.0531 26.7013 50.8782 26.5784 50.7269C26.4649 50.5757 26.3231 50.4575 26.153 50.3724C25.9828 50.2779 25.7843 50.2306 25.5574 50.2306C25.1604 50.2306 24.7965 50.4055 24.4656 50.7553C24.1347 51.105 23.8228 51.7195 23.5297 52.5986C23.8795 52.8255 24.2245 53.0098 24.5649 53.1516C24.9146 53.284 25.2691 53.3502 25.6283 53.3502C26.0254 53.3502 26.342 53.2367 26.5784 53.0098C26.8241 52.783 26.947 52.4001 26.947 51.8613ZM35.0753 53.1942C35.0753 52.5892 34.9949 52.0787 34.8342 51.6628C34.6735 51.2468 34.4561 50.9113 34.182 50.656C33.9078 50.3913 33.5864 50.2023 33.2178 50.0888C32.8585 49.9659 32.471 49.9045 32.055 49.9045C31.7809 49.9045 31.4878 49.9329 31.1759 49.9896C30.8734 50.0368 30.6229 50.0888 30.4244 50.1456V49.0112C30.6134 48.9545 30.8639 48.893 31.1759 48.8269C31.4878 48.7512 31.8282 48.7134 32.1968 48.7134C32.9153 48.7134 33.5344 48.8363 34.0544 49.0821C34.5743 49.3279 34.9997 49.6635 35.3305 50.0888C35.6614 50.5048 35.9024 50.9963 36.0537 51.5635C36.2144 52.1213 36.2947 52.7121 36.2947 53.336V54.3711H29.3893C29.0111 54.3711 28.8221 54.182 28.8221 53.8039C28.8221 53.5676 28.8693 53.4069 28.9639 53.3218C29.0489 53.2367 29.1907 53.1942 29.3893 53.1942H35.0753ZM41.4152 54.3711C41.1032 54.3711 40.8432 54.3002 40.6353 54.1584C40.4273 54.0166 40.2713 53.8512 40.1673 53.6621C40.1673 54.3427 40.1248 54.9146 40.0397 55.3778C39.9547 55.8505 39.7987 56.2286 39.5718 56.5122C39.3544 56.8053 39.0472 57.0132 38.6501 57.1361C38.2531 57.2685 37.7379 57.3346 37.1045 57.3346V56.1577C37.5677 56.1577 37.927 56.1057 38.1822 56.0018C38.4469 55.9072 38.6407 55.7465 38.7636 55.5196C38.8959 55.3022 38.9715 55.0186 38.9904 54.6689C39.0188 54.3286 39.033 53.9126 39.033 53.4211V49.6209H40.1815V51.6344C40.1815 52.1165 40.2666 52.4994 40.4368 52.783C40.6164 53.0571 40.9425 53.1942 41.4152 53.1942C41.7933 53.1942 41.9823 53.3832 41.9823 53.7614C41.9823 53.9977 41.9351 54.1584 41.8405 54.2435C41.7555 54.3286 41.6137 54.3711 41.4152 54.3711ZM41.4087 54.3711C41.0306 54.3711 40.8415 54.182 40.8415 53.8039C40.8415 53.5676 40.8888 53.4069 40.9833 53.3218C41.0684 53.2367 41.2102 53.1942 41.4087 53.1942H43.6208V44.2468H44.7835V54.3711H41.4087ZM47.9259 44.2468V54.3711H46.7632V44.2468H47.9259Z" fill="#EDEDED"></path>
</svg>