<svg width="20" height="20" viewBox="0 0 20 20" fill="none" xmlns="http://www.w3.org/2000/svg">
<rect width="20" height="20" rx="10" fill="#232323" fill-opacity="0.9"></rect>
<path fill-rule="evenodd" clip-rule="evenodd" d="M16.2788 9.14348C16.4275 9.14348 16.5018 9.21778 16.5018 9.3664C16.5761 9.58932 16.5761 9.81224 16.5018 10.0352V10.7039C16.1302 14.2706 12.9351 16.8714 9.36835 16.4998C5.80164 16.1283 3.20091 12.9331 3.57245 9.3664C3.94398 5.79969 7.13916 3.19896 10.7059 3.57049C10.8545 3.57049 10.9288 3.6448 10.9288 3.79341C10.9288 3.94203 10.8545 4.01633 10.7059 4.01633C8.47667 4.31356 6.76762 6.02261 6.4704 8.2518C6.17317 10.8525 8.10514 13.3046 10.7059 13.6019C13.3066 13.8991 15.7587 12.0414 16.0559 9.3664C16.0559 9.21778 16.1302 9.14348 16.2788 9.14348ZM9.81259 7.73219C9.73828 7.65788 9.73828 7.58358 9.73828 7.50927C9.76666 7.48089 9.79505 7.46335 9.81929 7.44836C9.85851 7.42412 9.88689 7.40658 9.88689 7.36066L11.2244 7.13774L11.8189 5.94884C11.8189 5.94884 11.8189 5.87453 11.8932 5.87453C12.0418 5.80022 12.1161 5.87453 12.1904 5.94884L12.7848 7.13774L14.1224 7.36066C14.1967 7.36066 14.271 7.43497 14.271 7.43497C14.3453 7.50927 14.3453 7.65788 14.271 7.73219L13.305 8.69818L13.5279 10.0357V10.1843C13.4536 10.2586 13.305 10.3329 13.2307 10.2586L12.0418 9.66416L10.8529 10.2586H10.7043C10.63 10.2586 10.5557 10.1843 10.5557 10.0357L10.7786 8.69818L9.81259 7.73219Z" fill="#45CF6C"></path>
</svg>