<svg width="63" height="95" viewBox="0 0 63 95" fill="none" xmlns="http://www.w3.org/2000/svg">
<path d="M31.5965 95C31.5965 95 46.4694 75.3822 57.8321 52.6057C69.1948 29.8291 60.6264 10.904 43.7432 2.5305C28.9354 -4.02783 11.1549 2.53051 3.69273 17.9371C-1.08325 29.4833 -1.5163 34.1351 4.10595 49.2844C9.72819 64.4337 31.5965 95 31.5965 95Z" fill="#121823" fill-opacity="0.6"></path>
<path fill-rule="evenodd" clip-rule="evenodd" d="M33.9413 9.77334C34.0442 10.2823 33.6888 10.7677 33.1475 10.8575C32.6062 10.9473 32.084 10.6075 31.9811 10.0985C31.8783 9.58959 32.2337 9.10419 32.775 9.01439C33.3163 8.92459 33.8385 9.26438 33.9413 9.77334ZM32.1573 16.076L33.1055 17.5065L33.4578 19.6039C33.477 19.6737 33.5084 19.7374 33.5494 19.7933H30.0169C30.07 19.733 30.1205 19.6643 30.1692 19.5894L31.4899 17.767L32.1573 16.076ZM34.6457 19.2774C34.6956 19.4855 34.6642 19.6622 34.5736 19.7933H39.4861C39.7699 19.7933 40 20.0018 40 20.2589C40 20.5161 39.7699 20.7245 39.4861 20.7245H24.5139C24.2301 20.7245 24 20.5161 24 20.2589C24 20.0018 24.2301 19.7933 24.5139 19.7933H28.9675C28.8541 19.6443 28.8168 19.453 28.9089 19.2738L30.258 17.2474L30.8459 15.3045C30.8807 15.126 30.7578 14.8385 30.7578 14.8385C30.642 14.4385 30.7208 14.2009 30.7208 14.2009L31.07 12.3828L30.2017 13.0659L29.845 14.4458C29.7892 14.7345 29.6166 14.9497 29.321 14.9519C29.0252 14.9542 28.7827 14.7166 28.8094 14.466L29.2685 12.752C29.3252 12.4164 29.5353 12.3048 29.5353 12.3048L31.4357 11.0705C32.5408 10.6858 33.2605 11.38 33.2605 11.38L34.1837 13.0517L35.2263 13.7728C35.45 13.9912 35.4788 14.2973 35.2594 14.4832C35.071 14.6429 34.7102 14.5348 34.5305 14.3666L33.6248 13.7415C33.4463 13.6443 33.0354 12.8703 33.0354 12.8703L32.7579 14.5077C32.7114 14.7093 32.8248 14.8385 32.8248 14.8385L34.2487 16.9059L34.6457 19.2774ZM25.5637 21.8C25.7847 21.7131 26.2231 21.5406 26.7341 21.5406C27.2542 21.5406 27.5142 21.6379 27.7743 21.7352C28.0343 21.8326 28.2943 21.9299 28.8144 21.9299C29.3345 21.9299 29.5945 21.8326 29.8545 21.7352C30.1146 21.6379 30.3746 21.5406 30.8947 21.5406C31.4148 21.5406 31.6748 21.6379 31.9348 21.7352C32.1949 21.8326 32.4549 21.9299 32.975 21.9299C33.4951 21.9299 33.7551 21.8326 34.0151 21.7352C34.2752 21.6379 34.5352 21.5406 35.0553 21.5406C35.5753 21.5406 35.8354 21.6379 36.0954 21.7352C36.3555 21.8326 36.6155 21.9299 37.1356 21.9299C37.3446 21.9363 37.8488 21.912 38.1934 21.7632C38.5533 21.6079 38.7965 21.953 38.5405 22.2299C38.0797 22.7282 37.3353 23.3302 36.7003 23.7075L36.4135 23.8635C33.395 25.5058 29.5862 25.3577 26.7341 23.4871C25.9243 22.8141 25.5703 22.4846 25.286 22.15C25.1672 22.0101 25.276 21.9004 25.459 21.8397C25.4846 21.8312 25.5199 21.8173 25.5637 21.8Z" fill="#EDEDED"></path>
<path d="M16.6077 38.4139C16.6077 38.745 16.7102 39.013 16.9152 39.2179C17.128 39.4229 17.463 39.5254 17.9202 39.5254C18.0936 39.5254 18.2789 39.5057 18.4759 39.4662C18.6809 39.4268 18.8622 39.3756 19.0199 39.3125V37.2078H17.9793C17.601 37.2078 17.2778 37.3064 17.0098 37.5034C16.7417 37.6926 16.6077 37.9961 16.6077 38.4139ZM17.8374 40.5304C17.6483 40.5304 17.4275 40.5028 17.1753 40.4477C16.9309 40.3925 16.6944 40.2939 16.4658 40.152C16.2451 40.0023 16.0559 39.7973 15.8983 39.5372C15.7406 39.2692 15.6618 38.9223 15.6618 38.4967C15.6618 38.071 15.7367 37.7163 15.8865 37.4325C16.0362 37.1408 16.2294 36.9043 16.4658 36.723C16.7023 36.5417 16.9625 36.4117 17.2462 36.3328C17.5379 36.254 17.8256 36.2146 18.1094 36.2146H19.9894V39.6081C19.9894 39.9392 20.0407 40.1757 20.1432 40.3176C20.2456 40.4516 20.4742 40.5186 20.829 40.5186H21.1127C21.428 40.5186 21.5857 40.6763 21.5857 40.9916C21.5857 41.1886 21.5463 41.3226 21.4675 41.3936C21.3965 41.4645 21.2783 41.5 21.1127 41.5H20.7107C20.5058 41.5 20.3087 41.4842 20.1195 41.4527C19.9382 41.4133 19.7727 41.3502 19.6229 41.2635C19.481 41.1689 19.3588 41.0467 19.2563 40.897C19.1539 40.7472 19.0869 40.5541 19.0553 40.3176C18.8819 40.3806 18.6848 40.4319 18.4641 40.4713C18.2513 40.5107 18.0424 40.5304 17.8374 40.5304ZM16.8679 34.0626C16.8679 33.8892 16.927 33.7434 17.0452 33.6251C17.1714 33.499 17.3211 33.4359 17.4945 33.4359C17.668 33.4359 17.8138 33.499 17.932 33.6251C18.0582 33.7434 18.1212 33.8892 18.1212 34.0626C18.1212 34.236 18.0582 34.3858 17.932 34.5119C17.8138 34.6302 17.668 34.6893 17.4945 34.6893C17.3211 34.6893 17.1714 34.6302 17.0452 34.5119C16.927 34.3858 16.8679 34.236 16.8679 34.0626ZM18.405 34.0626C18.405 33.8892 18.4641 33.7434 18.5824 33.6251C18.7085 33.499 18.8583 33.4359 19.0317 33.4359C19.2051 33.4359 19.3509 33.499 19.4692 33.6251C19.5953 33.7434 19.6584 33.8892 19.6584 34.0626C19.6584 34.236 19.5953 34.3858 19.4692 34.5119C19.3509 34.6302 19.2051 34.6893 19.0317 34.6893C18.8583 34.6893 18.7085 34.6302 18.5824 34.5119C18.4641 34.3858 18.405 34.236 18.405 34.0626ZM25.9472 41.5V41.5473C26.1443 41.7365 26.2665 41.9336 26.3138 42.1385C26.369 42.3435 26.3966 42.5208 26.3966 42.6706C26.3966 42.8992 26.3571 43.1199 26.2783 43.3327C26.1995 43.5456 26.0812 43.7308 25.9236 43.8885C25.7738 44.0461 25.5807 44.1723 25.3442 44.2669C25.1156 44.3614 24.8476 44.4087 24.5402 44.4087C24.1303 44.4087 23.7874 44.3417 23.5115 44.2077C23.2356 44.0816 23.0109 43.8964 22.8375 43.652C22.672 43.4155 22.5537 43.1238 22.4828 42.777C22.4118 42.438 22.3763 42.0557 22.3763 41.6301V41.5H21.1112C20.7959 41.5 20.6382 41.3423 20.6382 41.027C20.6382 40.83 20.6776 40.696 20.7564 40.625C20.8274 40.5541 20.9456 40.5186 21.1112 40.5186H22.3763V39.8328C22.3763 38.8632 22.5695 38.1144 22.9557 37.5862C23.342 37.0581 23.878 36.794 24.5638 36.794C24.9107 36.794 25.2023 36.8571 25.4388 36.9832C25.6753 37.1093 25.8645 37.267 26.0064 37.4561C26.1561 37.6453 26.2625 37.8503 26.3256 38.071C26.3887 38.2917 26.4202 38.4967 26.4202 38.6859C26.4202 39.1194 26.3335 39.482 26.1601 39.7737C25.9945 40.0575 25.8014 40.29 25.5807 40.4713V40.5186H27.2952C27.6105 40.5186 27.7682 40.6763 27.7682 40.9916C27.7682 41.1886 27.7287 41.3226 27.6499 41.3936C27.579 41.4645 27.4607 41.5 27.2952 41.5H25.9472ZM23.3459 40.5186H23.878C24.1776 40.5186 24.4298 40.4634 24.6348 40.3531C24.8476 40.2348 25.0171 40.0929 25.1432 39.9274C25.2693 39.754 25.36 39.5727 25.4152 39.3835C25.4703 39.1864 25.4979 39.009 25.4979 38.8514C25.4979 38.473 25.4033 38.1971 25.2141 38.0237C25.025 37.8424 24.8042 37.7517 24.552 37.7517C24.1657 37.7517 23.8662 37.9252 23.6534 38.272C23.4484 38.611 23.3459 39.0997 23.3459 39.7382V40.5186ZM23.3459 41.5V41.7247C23.3459 41.9769 23.3578 42.2094 23.3814 42.4223C23.4129 42.6351 23.4721 42.8204 23.5588 42.978C23.6455 43.1357 23.7637 43.2579 23.9135 43.3446C24.0711 43.4392 24.2761 43.4865 24.5283 43.4865C24.8594 43.4865 25.1038 43.4037 25.2614 43.2381C25.427 43.0726 25.5097 42.844 25.5097 42.5523C25.5097 42.4814 25.4979 42.3829 25.4743 42.2567C25.4506 42.1385 25.3915 42.0242 25.2969 41.9138C25.2102 41.8035 25.0801 41.705 24.9067 41.6182C24.7412 41.5394 24.5126 41.5 24.2209 41.5H23.3459ZM32.0303 40.5186C32.0303 40.0141 31.9633 39.5884 31.8293 39.2416C31.6953 38.8947 31.514 38.6149 31.2854 38.4021C31.0568 38.1814 30.7888 38.0237 30.4813 37.9291C30.1818 37.8266 29.8586 37.7754 29.5118 37.7754C29.2832 37.7754 29.0388 37.799 28.7787 37.8463C28.5264 37.8858 28.3175 37.9291 28.152 37.9764V37.0305C28.3096 36.9832 28.5185 36.9319 28.7787 36.8768C29.0388 36.8137 29.3226 36.7822 29.63 36.7822C30.2291 36.7822 30.7454 36.8846 31.179 37.0896C31.6125 37.2945 31.9672 37.5744 32.2431 37.9291C32.519 38.2759 32.72 38.6859 32.8462 39.1588C32.9802 39.6239 33.0472 40.1166 33.0472 40.6368V41.5H27.2888C26.9735 41.5 26.8159 41.3423 26.8159 41.027C26.8159 40.83 26.8553 40.696 26.9341 40.625C27.005 40.5541 27.1233 40.5186 27.2888 40.5186H32.0303ZM29.7601 43.2736C29.7601 43.1002 29.8192 42.9504 29.9374 42.8243C30.0636 42.7061 30.2133 42.6469 30.3867 42.6469C30.5602 42.6469 30.706 42.7061 30.8242 42.8243C30.9504 42.9504 31.0134 43.1002 31.0134 43.2736C31.0134 43.447 30.9504 43.5929 30.8242 43.7111C30.706 43.8372 30.5602 43.9003 30.3867 43.9003C30.2133 43.9003 30.0636 43.8372 29.9374 43.7111C29.8192 43.5929 29.7601 43.447 29.7601 43.2736ZM35.4369 33.0576V41.5H34.4674V33.0576H35.4369ZM41.2625 41.5C41.2309 41.9808 41.1285 42.3789 40.955 42.6942C40.7895 43.0095 40.5609 43.2618 40.2692 43.451C39.9776 43.6402 39.6268 43.7742 39.2169 43.853C38.8149 43.9318 38.3655 43.9712 37.8689 43.9712H37.3723V42.9898H37.7389C38.1094 42.9898 38.4483 42.9701 38.7557 42.9307C39.0632 42.8992 39.3272 42.8282 39.548 42.7179C39.7766 42.6154 39.9539 42.4656 40.0801 42.2686C40.2141 42.0715 40.285 41.8153 40.2929 41.5H38.9568C38.6336 41.5 38.334 41.4645 38.0581 41.3936C37.7901 41.3226 37.5536 41.2083 37.3487 41.0507C37.1516 40.8851 36.9939 40.6723 36.8757 40.4122C36.7653 40.152 36.7102 39.8289 36.7102 39.4426C36.7102 39.1194 36.7614 38.8041 36.8639 38.4967C36.9742 38.1892 37.128 37.9173 37.325 37.6808C37.53 37.4443 37.7743 37.2551 38.0581 37.1132C38.3498 36.9635 38.6809 36.8886 39.0513 36.8886C39.4613 36.8886 39.8081 36.9635 40.0919 37.1132C40.3757 37.2551 40.6043 37.4601 40.7777 37.7281C40.959 37.9961 41.089 38.3193 41.1679 38.6977C41.2467 39.076 41.2861 39.4978 41.2861 39.9629V40.5186H42.1138C42.4291 40.5186 42.5868 40.6763 42.5868 40.9916C42.5868 41.1886 42.5474 41.3226 42.4685 41.3936C42.3976 41.4645 42.2793 41.5 42.1138 41.5H41.2625ZM37.6561 39.348C37.6561 39.75 37.7704 40.0456 37.999 40.2348C38.2355 40.424 38.5784 40.5186 39.0277 40.5186H40.2929V39.7382C40.2929 39.1549 40.1944 38.6898 39.9973 38.343C39.8002 37.9961 39.4613 37.8227 38.9804 37.8227C38.7518 37.8227 38.5547 37.87 38.3892 37.9646C38.2237 38.0513 38.0857 38.1695 37.9754 38.3193C37.8729 38.4612 37.794 38.6228 37.7389 38.8041C37.6837 38.9854 37.6561 39.1667 37.6561 39.348ZM42.1152 41.5C41.7999 41.5 41.6422 41.3423 41.6422 41.027C41.6422 40.83 41.6816 40.696 41.7605 40.625C41.8314 40.5541 41.9497 40.5186 42.1152 40.5186H43.9598V33.0576H44.9293V41.5H42.1152ZM47.5498 33.0576V41.5H46.5802V33.0576H47.5498ZM17.9299 50.4139C17.9299 50.745 18.0323 51.013 18.2373 51.2179C18.4501 51.4229 18.7851 51.5254 19.2423 51.5254C19.4158 51.5254 19.601 51.5057 19.7981 51.4662C20.003 51.4268 20.1843 51.3756 20.342 51.3125V49.2078H19.3015C18.9231 49.2078 18.5999 49.3064 18.3319 49.5034C18.0639 49.6926 17.9299 49.9961 17.9299 50.4139ZM19.1596 52.5304C18.9704 52.5304 18.7497 52.5028 18.4974 52.4477C18.2531 52.3925 18.0166 52.2939 17.788 52.152C17.5673 52.0023 17.3781 51.7973 17.2204 51.5372C17.0628 51.2692 16.9839 50.9223 16.9839 50.4967C16.9839 50.071 17.0588 49.7163 17.2086 49.4325C17.3584 49.1408 17.5515 48.9043 17.788 48.723C18.0245 48.5417 18.2846 48.4117 18.5684 48.3328C18.86 48.254 19.1478 48.2146 19.4315 48.2146H21.3116V51.6081C21.3116 51.9392 21.3628 52.1757 21.4653 52.3176C21.5678 52.4516 21.7964 52.5186 22.1511 52.5186H22.4349C22.7502 52.5186 22.9078 52.6763 22.9078 52.9916C22.9078 53.1886 22.8684 53.3226 22.7896 53.3936C22.7186 53.4645 22.6004 53.5 22.4349 53.5H22.0328C21.8279 53.5 21.6308 53.4842 21.4416 53.4527C21.2603 53.4133 21.0948 53.3502 20.945 53.2635C20.8031 53.1689 20.681 53.0467 20.5785 52.897C20.476 52.7472 20.409 52.5541 20.3775 52.3176C20.204 52.3806 20.007 52.4319 19.7863 52.4713C19.5734 52.5107 19.3645 52.5304 19.1596 52.5304ZM18.19 46.0626C18.19 45.8892 18.2491 45.7434 18.3674 45.6251C18.4935 45.499 18.6433 45.4359 18.8167 45.4359C18.9901 45.4359 19.1359 45.499 19.2542 45.6251C19.3803 45.7434 19.4434 45.8892 19.4434 46.0626C19.4434 46.236 19.3803 46.3858 19.2542 46.5119C19.1359 46.6302 18.9901 46.6893 18.8167 46.6893C18.6433 46.6893 18.4935 46.6302 18.3674 46.5119C18.2491 46.3858 18.19 46.236 18.19 46.0626ZM19.7271 46.0626C19.7271 45.8892 19.7863 45.7434 19.9045 45.6251C20.0306 45.499 20.1804 45.4359 20.3538 45.4359C20.5272 45.4359 20.6731 45.499 20.7913 45.6251C20.9174 45.7434 20.9805 45.8892 20.9805 46.0626C20.9805 46.236 20.9174 46.3858 20.7913 46.5119C20.6731 46.6302 20.5272 46.6893 20.3538 46.6893C20.1804 46.6893 20.0306 46.6302 19.9045 46.5119C19.7863 46.3858 19.7271 46.236 19.7271 46.0626ZM22.4333 53.5C22.118 53.5 21.9603 53.3423 21.9603 53.027C21.9603 52.83 21.9997 52.696 22.0786 52.625C22.1495 52.5541 22.2678 52.5186 22.4333 52.5186H24.2779V48.9477H25.2474V53.5H22.4333ZM22.9063 55.2854C22.9063 55.112 22.9654 54.9623 23.0836 54.8361C23.2097 54.7179 23.3595 54.6588 23.5329 54.6588C23.7064 54.6588 23.8522 54.7179 23.9704 54.8361C24.0966 54.9623 24.1596 55.112 24.1596 55.2854C24.1596 55.4589 24.0966 55.6047 23.9704 55.7229C23.8522 55.8491 23.7064 55.9121 23.5329 55.9121C23.3595 55.9121 23.2097 55.8491 23.0836 55.7229C22.9654 55.6047 22.9063 55.4589 22.9063 55.2854ZM24.4434 55.2854C24.4434 55.112 24.5025 54.9623 24.6208 54.8361C24.7469 54.7179 24.8967 54.6588 25.0701 54.6588C25.2435 54.6588 25.3893 54.7179 25.5076 54.8361C25.6337 54.9623 25.6968 55.112 25.6968 55.2854C25.6968 55.4589 25.6337 55.6047 25.5076 55.7229C25.3893 55.8491 25.2435 55.9121 25.0701 55.9121C24.8967 55.9121 24.7469 55.8491 24.6208 55.7229C24.5025 55.6047 24.4434 55.4589 24.4434 55.2854ZM29.7479 53.5C29.4878 53.5 29.271 53.4409 29.0976 53.3226C28.9242 53.2044 28.7941 53.0664 28.7074 52.9088C28.7074 53.4764 28.6719 53.9533 28.601 54.3395C28.53 54.7337 28.4 55.049 28.2108 55.2854C28.0295 55.5298 27.7733 55.7032 27.4422 55.8057C27.1111 55.9161 26.6815 55.9712 26.1534 55.9712V54.9898C26.5396 54.9898 26.8392 54.9465 27.052 54.8598C27.2727 54.7809 27.4343 54.6469 27.5368 54.4578C27.6472 54.2765 27.7102 54.04 27.726 53.7483C27.7496 53.4645 27.7615 53.1177 27.7615 52.7078V49.5389H28.7192V51.2179C28.7192 51.62 28.7902 51.9392 28.932 52.1757C29.0818 52.4043 29.3538 52.5186 29.7479 52.5186C30.0632 52.5186 30.2209 52.6763 30.2209 52.9916C30.2209 53.1886 30.1815 53.3226 30.1026 53.3936C30.0317 53.4645 29.9135 53.5 29.7479 53.5ZM29.7426 53.5C29.4272 53.5 29.2696 53.3423 29.2696 53.027C29.2696 52.83 29.309 52.696 29.3878 52.625C29.4588 52.5541 29.577 52.5186 29.7426 52.5186H34.484C34.484 52.0141 34.417 51.5884 34.283 51.2416C34.149 50.8947 33.9677 50.6149 33.7391 50.4021C33.5105 50.1814 33.2425 50.0237 32.9351 49.9291C32.6355 49.8266 32.3123 49.7754 31.9655 49.7754C31.7369 49.7754 31.4925 49.799 31.2324 49.8463C30.9802 49.8858 30.7713 49.9291 30.6057 49.9764V49.0305C30.7634 48.9832 30.9723 48.9319 31.2324 48.8768C31.4925 48.8137 31.7763 48.7822 32.0837 48.7822C32.6749 48.7822 33.1834 48.8807 33.6091 49.0778C34.0347 49.2748 34.3855 49.5468 34.6614 49.8936C34.9452 50.2326 35.1541 50.6307 35.2881 51.0879C35.4221 51.5372 35.493 52.0141 35.5009 52.5186H36.234C36.5493 52.5186 36.707 52.6763 36.707 52.9916C36.707 53.1886 36.6676 53.3226 36.5887 53.3936C36.5178 53.4645 36.3996 53.5 36.234 53.5H29.7426ZM36.2435 53.5C35.9282 53.5 35.7706 53.3423 35.7706 53.027C35.7706 52.83 35.81 52.696 35.8888 52.625C35.9598 52.5541 36.078 52.5186 36.2435 52.5186H37.0357C37.2249 52.5186 37.3865 52.5107 37.5205 52.4949C37.6545 52.4792 37.7649 52.4437 37.8516 52.3885C37.9462 52.3255 38.0132 52.2388 38.0526 52.1284C38.0999 52.0102 38.1236 51.8525 38.1236 51.6554V48.9477H39.0931V51.2179C39.0931 51.415 39.105 51.5963 39.1286 51.7619C39.1602 51.9195 39.2153 52.0535 39.2942 52.1639C39.373 52.2742 39.4794 52.3609 39.6134 52.424C39.7474 52.4871 39.9169 52.5186 40.1219 52.5186C40.4372 52.5186 40.5948 52.6763 40.5948 52.9916C40.5948 53.1886 40.5554 53.3226 40.4766 53.3936C40.4056 53.4645 40.2874 53.5 40.1219 53.5C39.8144 53.5 39.5661 53.4291 39.3769 53.2872C39.1877 53.1374 39.0616 52.9521 38.9986 52.7314C38.8567 53.0546 38.632 53.2635 38.3246 53.3581C38.025 53.4527 37.6545 53.5 37.2131 53.5H36.2435ZM37.7688 55.2618C37.7688 55.0884 37.828 54.9386 37.9462 54.8125C38.0723 54.6942 38.2221 54.6351 38.3955 54.6351C38.5689 54.6351 38.7148 54.6942 38.833 54.8125C38.9591 54.9386 39.0222 55.0884 39.0222 55.2618C39.0222 55.4352 38.9591 55.581 38.833 55.6993C38.7148 55.8254 38.5689 55.8885 38.3955 55.8885C38.2221 55.8885 38.0723 55.8254 37.9462 55.6993C37.828 55.581 37.7688 55.4352 37.7688 55.2618ZM40.1233 53.5C39.808 53.5 39.6504 53.3423 39.6504 53.027C39.6504 52.83 39.6898 52.696 39.7686 52.625C39.8395 52.5541 39.9578 52.5186 40.1233 52.5186H41.9679V45.0576H42.9375V53.5H40.1233ZM25.765 61.7399C25.568 61.7399 25.3867 61.7872 25.2211 61.8818C25.0556 61.9685 24.9137 62.0868 24.7954 62.2365C24.6772 62.3863 24.5826 62.5597 24.5117 62.7568C24.4486 62.9539 24.4171 63.1628 24.4171 63.3835C24.4171 63.5963 24.4525 63.7816 24.5235 63.9392C24.5944 64.089 24.689 64.2151 24.8073 64.3176C24.9334 64.4122 25.0753 64.4831 25.2329 64.5304C25.3985 64.5698 25.5719 64.5895 25.7532 64.5895C25.9187 64.5895 26.0803 64.5738 26.238 64.5422C26.4035 64.5028 26.5494 64.4398 26.6755 64.3531C26.8016 64.2585 26.9041 64.1402 26.9829 63.9983C27.0617 63.8486 27.1012 63.6594 27.1012 63.4308C27.1012 63.1706 27.0617 62.9381 26.9829 62.7331C26.912 62.5282 26.8134 62.3508 26.6873 62.2011C26.5691 62.0513 26.4272 61.937 26.2616 61.8582C26.104 61.7793 25.9384 61.7399 25.765 61.7399ZM23.5303 63.4781C23.5303 63.1628 23.5815 62.8474 23.684 62.5321C23.7865 62.2089 23.9362 61.9173 24.1333 61.6572C24.3304 61.397 24.5668 61.1881 24.8427 61.0305C25.1265 60.8649 25.4458 60.7822 25.8005 60.7822C26.1079 60.7822 26.3917 60.8452 26.6518 60.9714C26.9199 61.0896 27.1524 61.267 27.3495 61.5034C27.5544 61.732 27.7121 62.0119 27.8224 62.343C27.9407 62.674 27.9998 63.0524 27.9998 63.4781C27.9998 63.7382 27.9564 63.9944 27.8697 64.2466C27.7909 64.491 27.6569 64.7117 27.4677 64.9088C27.2864 65.098 27.0499 65.2556 26.7583 65.3818C26.4745 65.5 26.1316 65.5591 25.7296 65.5591C25.3985 65.5591 25.0989 65.5197 24.8309 65.4409C24.5629 65.3542 24.3304 65.2241 24.1333 65.0507C23.9441 64.8773 23.7943 64.6605 23.684 64.4004C23.5815 64.1402 23.5303 63.8328 23.5303 63.4781ZM24.287 58.9612C24.287 58.7878 24.3461 58.642 24.4644 58.5238C24.5905 58.3976 24.7403 58.3346 24.9137 58.3346C25.0871 58.3346 25.2329 58.3976 25.3512 58.5238C25.4773 58.642 25.5404 58.7878 25.5404 58.9612C25.5404 59.1347 25.4773 59.2844 25.3512 59.4106C25.2329 59.5288 25.0871 59.5879 24.9137 59.5879C24.7403 59.5879 24.5905 59.5288 24.4644 59.4106C24.3461 59.2844 24.287 59.1347 24.287 58.9612ZM25.8241 58.9612C25.8241 58.7878 25.8833 58.642 26.0015 58.5238C26.1276 58.3976 26.2774 58.3346 26.4508 58.3346C26.6242 58.3346 26.7701 58.3976 26.8883 58.5238C27.0144 58.642 27.0775 58.7878 27.0775 58.9612C27.0775 59.1347 27.0144 59.2844 26.8883 59.4106C26.7701 59.5288 26.6242 59.5879 26.4508 59.5879C26.2774 59.5879 26.1276 59.5288 26.0015 59.4106C25.8833 59.2844 25.8241 59.1347 25.8241 58.9612ZM34.1216 65.5C33.7984 65.5 33.5264 65.433 33.3057 65.299C33.085 65.165 32.8643 64.9246 32.6435 64.5777C32.5568 64.7906 32.4425 64.96 32.3006 65.0862C32.1666 65.2123 32.0129 65.3069 31.8395 65.3699C31.674 65.4251 31.4966 65.4606 31.3074 65.4764C31.1182 65.4921 30.929 65.5 30.7399 65.5H28.9426V64.5186H31.0591C31.3902 64.5186 31.6424 64.4792 31.8158 64.4004C31.9972 64.3136 32.0878 64.1915 32.0878 64.0338C32.0878 63.884 32.0484 63.7343 31.9696 63.5845C31.8907 63.4347 31.7922 63.2731 31.674 63.0997L30.4206 61.2433L31.3311 60.6757L32.75 63.0288C32.9076 63.2889 33.0456 63.5135 33.1638 63.7027C33.282 63.8919 33.3924 64.0456 33.4949 64.1639C33.6052 64.2821 33.7077 64.3728 33.8023 64.4358C33.9048 64.491 34.0112 64.5186 34.1216 64.5186C34.4369 64.5186 34.5945 64.6763 34.5945 64.9916C34.5945 65.1886 34.5551 65.3226 34.4763 65.3936C34.4053 65.4645 34.2871 65.5 34.1216 65.5ZM38.8604 64.5186C38.8604 64.0141 38.7934 63.5884 38.6593 63.2416C38.5253 62.8947 38.344 62.6149 38.1154 62.4021C37.8868 62.1814 37.6188 62.0237 37.3114 61.9291C37.0119 61.8266 36.6887 61.7754 36.3418 61.7754C36.1132 61.7754 35.8689 61.799 35.6087 61.8463C35.3565 61.8858 35.1476 61.9291 34.982 61.9764V61.0305C35.1397 60.9832 35.3486 60.9319 35.6087 60.8768C35.8689 60.8137 36.1526 60.7822 36.4601 60.7822C37.0591 60.7822 37.5755 60.8846 38.009 61.0896C38.4426 61.2945 38.7973 61.5744 39.0732 61.9291C39.3491 62.2759 39.5501 62.6859 39.6762 63.1588C39.8102 63.6239 39.8772 64.1166 39.8772 64.6368V65.5H34.1189C33.8036 65.5 33.6459 65.3423 33.6459 65.027C33.6459 64.83 33.6853 64.696 33.7642 64.625C33.8351 64.5541 33.9533 64.5186 34.1189 64.5186H38.8604ZM36.5901 67.2736C36.5901 67.1002 36.6492 66.9504 36.7675 66.8243C36.8936 66.7061 37.0434 66.6469 37.2168 66.6469C37.3902 66.6469 37.5361 66.7061 37.6543 66.8243C37.7804 66.9504 37.8435 67.1002 37.8435 67.2736C37.8435 67.447 37.7804 67.5929 37.6543 67.7111C37.5361 67.8372 37.3902 67.9003 37.2168 67.9003C37.0434 67.9003 36.8936 67.8372 36.7675 67.7111C36.6492 67.5929 36.5901 67.447 36.5901 67.2736Z" fill="#EDEDED"></path>
</svg>