<svg width="17" height="17" viewBox="0 0 17 17" fill="none" xmlns="http://www.w3.org/2000/svg">
<path fill-rule="evenodd" clip-rule="evenodd" d="M8.5 0C3.79933 0 0 3.79933 0 8.5C0 13.2007 3.79933 17 8.5 17C13.2007 17 17 13.2007 17 8.5C17 3.79933 13.2007 0 8.5 0ZM3.58663 7.21096C3.53042 7.15506 3.47421 7.09916 3.39551 7.00972C3.82021 6.94939 4.23716 6.8852 4.64797 6.82196C5.22678 6.73286 5.7934 6.64563 6.35233 6.5737C6.73459 6.52898 6.95944 6.39482 7.12808 6.02588C7.50014 5.2159 7.89919 4.43275 8.31718 3.61243C8.36651 3.51561 8.41611 3.41827 8.46596 3.32031C8.48133 3.34705 8.49538 3.36988 8.50812 3.39057C8.53267 3.43044 8.55234 3.46239 8.56714 3.49919C8.792 3.96316 9.02247 4.42434 9.25295 4.88552C9.48342 5.34669 9.7139 5.80787 9.93875 6.27184C10.0175 6.42836 10.1074 6.49544 10.2873 6.5178C11.1463 6.63594 11.9904 6.76146 12.8439 6.88837C13.0404 6.91759 13.2374 6.94689 13.4352 6.97618C13.4521 6.98177 13.469 6.98457 13.4858 6.98736C13.5027 6.99016 13.5195 6.99295 13.5364 6.99854C13.5477 7.00972 13.5589 7.0237 13.5701 7.03767C13.5814 7.05165 13.5926 7.06562 13.6039 7.0768C13.5875 7.0838 13.5711 7.0903 13.5549 7.09672C13.4933 7.12112 13.4348 7.14436 13.3903 7.1886C13.0192 7.54078 12.6539 7.89575 12.2885 8.25071C11.9231 8.60568 11.5577 8.96064 11.1867 9.31281C11.063 9.42461 11.0293 9.53641 11.063 9.70411C11.1904 10.3824 11.3079 11.0606 11.4253 11.7389C11.484 12.078 11.5427 12.4171 11.6027 12.7563C11.6099 12.785 11.6078 12.8229 11.6054 12.8671C11.6041 12.8918 11.6027 12.9183 11.6027 12.9463C11.5511 12.9271 11.507 12.9042 11.4638 12.8818C11.4317 12.8652 11.4002 12.8488 11.3666 12.8345C10.4674 12.3651 9.56751 11.8953 8.65709 11.4147C8.53342 11.3476 8.43223 11.3476 8.30856 11.4147C7.39792 11.8842 6.48729 12.3649 5.57665 12.8457C5.54038 12.8697 5.50082 12.8873 5.45631 12.9071C5.41802 12.9242 5.37604 12.9428 5.32925 12.9687C5.38546 12.6557 5.43042 12.3762 5.47539 12.0967C5.59257 11.3879 5.71823 10.6874 5.845 9.98079C5.86419 9.87381 5.88341 9.7667 5.90263 9.65939C5.93636 9.53641 5.90263 9.45815 5.81269 9.36871C5.07067 8.65319 4.32865 7.93767 3.58663 7.21096Z" fill="#959697"></path>
</svg>