<svg width="63" height="95" viewBox="0 0 63 95" fill="none" xmlns="http://www.w3.org/2000/svg">
<path d="M31.5965 95C31.5965 95 46.4694 75.3822 57.8321 52.6057C69.1948 29.8291 60.6264 10.904 43.7432 2.5305C28.9354 -4.02783 11.1549 2.53051 3.69273 17.9371C-1.08325 29.4833 -1.5163 34.1351 4.10595 49.2844C9.72819 64.4337 31.5965 95 31.5965 95Z" fill="#121823" fill-opacity="0.6"></path>
<path d="M14.8945 40.0332C14.6062 40.0332 14.3734 39.9667 14.1959 39.8336C14.0185 39.6932 13.9003 39.5194 13.8411 39.3125C13.7746 39.4677 13.6859 39.5934 13.575 39.6895C13.4641 39.7782 13.3237 39.8484 13.1537 39.9001C12.991 39.9519 12.7914 39.9889 12.5549 40.011C12.3183 40.0258 12.0411 40.0332 11.7233 40.0332H7.21036C6.78161 40.0332 6.42309 40.0036 6.1348 39.9445C5.8539 39.8854 5.62474 39.793 5.44733 39.6673C5.27731 39.5342 5.15534 39.3679 5.08142 39.1683C5.0075 38.9613 4.97054 38.71 4.97054 38.4143V36.6956H5.87977V38.0817C5.87977 38.3108 5.90564 38.4956 5.95739 38.6361C6.01653 38.7691 6.11262 38.8726 6.24568 38.9466C6.37874 39.0131 6.55985 39.0574 6.78901 39.0796C7.01816 39.1018 7.31015 39.1129 7.66498 39.1129H11.7122C11.9561 39.1129 12.1631 39.1055 12.3331 39.0907C12.5031 39.0759 12.6362 39.0427 12.7323 38.9909C12.8358 38.9318 12.9097 38.8505 12.9541 38.747C12.9984 38.6361 13.0206 38.4882 13.0206 38.3034V32.1162H13.9298V37.8932C13.9298 38.078 13.9409 38.248 13.9631 38.4032C13.9927 38.5511 14.0444 38.6767 14.1183 38.7802C14.1923 38.8837 14.292 38.965 14.4177 39.0242C14.5434 39.0833 14.7023 39.1129 14.8945 39.1129C15.1902 39.1129 15.338 39.2607 15.338 39.5564C15.338 39.7412 15.3011 39.8669 15.2272 39.9334C15.1606 39.9999 15.0497 40.0332 14.8945 40.0332ZM10.681 36.7622H8.65183V36.2521H9.1508C9.04731 36.0821 8.99556 35.8973 8.99556 35.6977C8.99556 35.5351 9.02144 35.3909 9.07318 35.2653C9.12493 35.1396 9.19515 35.0361 9.28386 34.9548C9.37256 34.8735 9.47236 34.8106 9.58324 34.7663C9.70151 34.7219 9.81979 34.6998 9.93806 34.6998C10.0637 34.6998 10.1709 34.7072 10.2596 34.7219C10.3557 34.7367 10.4259 34.7626 10.4703 34.7996V35.3207C10.3225 35.2542 10.1635 35.2209 9.99351 35.2209C9.81609 35.2209 9.68673 35.2727 9.60542 35.3761C9.5241 35.4796 9.48345 35.5942 9.48345 35.7199C9.48345 35.8677 9.5315 35.9934 9.62759 36.0969C9.72369 36.2004 9.86784 36.2521 10.06 36.2521H10.681V36.7622ZM14.8893 40.0332C14.5936 40.0332 14.4458 39.8854 14.4458 39.5897C14.4458 39.4049 14.4827 39.2792 14.5567 39.2127C14.6232 39.1461 14.7341 39.1129 14.8893 39.1129H15.7764C15.9094 39.1129 16.0277 39.1055 16.1312 39.0907C16.2347 39.0759 16.3197 39.0427 16.3862 38.9909C16.4601 38.9318 16.5156 38.8505 16.5525 38.747C16.5969 38.6361 16.6191 38.4882 16.6191 38.3034V32.1162H17.5283V37.8932C17.5283 38.2702 17.6022 38.5696 17.7501 38.7913C17.9053 39.0057 18.1492 39.1129 18.4819 39.1129C18.7776 39.1129 18.9254 39.2607 18.9254 39.5564C18.9254 39.7412 18.8885 39.8669 18.8145 39.9334C18.748 39.9999 18.6371 40.0332 18.4819 40.0332C18.1936 40.0332 17.9607 39.9667 17.7833 39.8336C17.6133 39.6932 17.4987 39.5194 17.4396 39.3125C17.3065 39.6155 17.0922 39.8114 16.7965 39.9001C16.5082 39.9889 16.1349 40.0332 15.6766 40.0332H14.8893ZM25.3036 40.0332C25.0227 40.0332 24.7787 39.9778 24.5718 39.8669C24.3648 39.756 24.1985 39.5675 24.0728 39.3014V39.2792C23.9323 39.5601 23.7254 39.7819 23.4518 39.9445C23.1857 40.0997 22.8494 40.1774 22.4428 40.1774C22.0954 40.1774 21.7443 40.1182 21.3894 39.9999C21.0346 39.8817 20.6687 39.6821 20.2917 39.4012C20.1956 39.549 20.0958 39.6673 19.9923 39.756C19.8962 39.8373 19.7927 39.9001 19.6818 39.9445C19.571 39.9815 19.4564 40.0073 19.3381 40.0221C19.2198 40.0295 19.0942 40.0332 18.9611 40.0332H18.4843C18.1886 40.0332 18.0408 39.8854 18.0408 39.5897C18.0408 39.4049 18.0778 39.2792 18.1517 39.2127C18.2182 39.1461 18.3291 39.1129 18.4843 39.1129H18.9389C19.0276 39.1129 19.12 39.1018 19.2161 39.0796C19.3122 39.0574 19.4083 39.0094 19.5044 38.9355C19.6005 38.8615 19.6929 38.7618 19.7816 38.6361C19.8777 38.503 19.9664 38.3256 20.0478 38.1039C20.2178 37.6308 20.3952 37.2501 20.58 36.9618C20.7722 36.6661 20.9644 36.4406 21.1566 36.2854C21.3562 36.1228 21.5558 36.0156 21.7553 35.9638C21.9623 35.9121 22.1656 35.8862 22.3652 35.8862C22.6461 35.8862 22.9048 35.9416 23.1414 36.0525C23.3779 36.156 23.5812 36.3076 23.7512 36.5071C23.9286 36.6993 24.0654 36.9322 24.1615 37.2057C24.265 37.4718 24.3167 37.7712 24.3167 38.1039C24.3167 38.1556 24.313 38.2073 24.3056 38.2591C24.3056 38.3034 24.3056 38.3478 24.3056 38.3921C24.3796 38.6287 24.4868 38.8098 24.6272 38.9355C24.775 39.0537 25.0005 39.1129 25.3036 39.1129C25.5993 39.1129 25.7471 39.2607 25.7471 39.5564C25.7471 39.7412 25.7102 39.8669 25.6362 39.9334C25.5697 39.9999 25.4588 40.0332 25.3036 40.0332ZM23.3964 38.0706C23.3964 37.908 23.3705 37.749 23.3188 37.5938C23.2744 37.4386 23.2042 37.3018 23.1081 37.1835C23.0194 37.0653 22.9085 36.9729 22.7755 36.9063C22.6424 36.8324 22.4872 36.7954 22.3098 36.7954C21.9993 36.7954 21.7147 36.9322 21.456 37.2057C21.1972 37.4792 20.9533 37.9597 20.7241 38.6472C20.9977 38.8246 21.2675 38.9687 21.5336 39.0796C21.8071 39.1831 22.0843 39.2349 22.3652 39.2349C22.6757 39.2349 22.9233 39.1461 23.1081 38.9687C23.3003 38.7913 23.3964 38.4919 23.3964 38.0706ZM25.3062 40.0332C25.0105 40.0332 24.8627 39.8854 24.8627 39.5897C24.8627 39.4049 24.8996 39.2792 24.9735 39.2127C25.0401 39.1461 25.1509 39.1129 25.3062 39.1129H27.0359V32.1162H27.9452V40.0332H25.3062ZM30.4025 32.1162V40.0332H29.4933V32.1162H30.4025ZM35.1816 37.1392C35.1816 37.4496 35.2777 37.701 35.4698 37.8932C35.6694 38.0854 35.9836 38.1815 36.4123 38.1815C36.575 38.1815 36.7487 38.163 36.9335 38.126C37.1257 38.0891 37.2957 38.041 37.4436 37.9819V36.0082H36.4678C36.113 36.0082 35.8099 36.1006 35.5586 36.2854C35.3072 36.4628 35.1816 36.7474 35.1816 37.1392ZM36.3347 39.124C36.1573 39.124 35.9503 39.0981 35.7138 39.0464C35.4846 38.9946 35.2629 38.9022 35.0485 38.7691C34.8415 38.6287 34.6641 38.4365 34.5163 38.1926C34.3684 37.9412 34.2945 37.616 34.2945 37.2168C34.2945 36.8176 34.3647 36.485 34.5052 36.2189C34.6456 35.9453 34.8267 35.7236 35.0485 35.5536C35.2703 35.3835 35.5142 35.2616 35.7803 35.1876C36.0538 35.1137 36.3236 35.0768 36.5898 35.0768H38.3528V38.2591C38.3528 38.5696 38.4008 38.7913 38.4969 38.9244C38.593 39.05 38.8074 39.1129 39.1401 39.1129H39.4062C39.7019 39.1129 39.8497 39.2607 39.8497 39.5564C39.8497 39.7412 39.8127 39.8669 39.7388 39.9334C39.6723 39.9999 39.5614 40.0332 39.4062 40.0332H39.0292C38.837 40.0332 38.6522 40.0184 38.4748 39.9889C38.3047 39.9519 38.1495 39.8928 38.0091 39.8114C37.876 39.7227 37.7614 39.6082 37.6653 39.4677C37.5692 39.3273 37.5064 39.1461 37.4768 38.9244C37.3142 38.9835 37.1294 39.0316 36.9224 39.0685C36.7228 39.1055 36.5269 39.124 36.3347 39.124ZM35.4255 33.0587C35.4255 32.8961 35.4809 32.7593 35.5918 32.6484C35.7101 32.5302 35.8505 32.471 36.0132 32.471C36.1758 32.471 36.3126 32.5302 36.4234 32.6484C36.5417 32.7593 36.6008 32.8961 36.6008 33.0587C36.6008 33.2213 36.5417 33.3618 36.4234 33.4801C36.3126 33.5909 36.1758 33.6464 36.0132 33.6464C35.8505 33.6464 35.7101 33.5909 35.5918 33.4801C35.4809 33.3618 35.4255 33.2213 35.4255 33.0587ZM36.867 33.0587C36.867 32.8961 36.9224 32.7593 37.0333 32.6484C37.1516 32.5302 37.292 32.471 37.4546 32.471C37.6173 32.471 37.754 32.5302 37.8649 32.6484C37.9832 32.7593 38.0423 32.8961 38.0423 33.0587C38.0423 33.2213 37.9832 33.3618 37.8649 33.4801C37.754 33.5909 37.6173 33.6464 37.4546 33.6464C37.292 33.6464 37.1516 33.5909 37.0333 33.4801C36.9224 33.3618 36.867 33.2213 36.867 33.0587ZM39.4047 40.0332C39.109 40.0332 38.9612 39.8854 38.9612 39.5897C38.9612 39.4049 38.9981 39.2792 39.0721 39.2127C39.1386 39.1461 39.2495 39.1129 39.4047 39.1129H40.1476C40.325 39.1129 40.4766 39.1055 40.6022 39.0907C40.7279 39.0759 40.8314 39.0427 40.9127 38.9909C41.0014 38.9318 41.0642 38.8505 41.1012 38.747C41.1456 38.6361 41.1677 38.4882 41.1677 38.3034V35.7642H42.077V37.8932C42.077 38.078 42.0881 38.248 42.1102 38.4032C42.1398 38.5511 42.1915 38.6767 42.2655 38.7802C42.3394 38.8837 42.4392 38.965 42.5648 39.0242C42.6905 39.0833 42.8494 39.1129 43.0416 39.1129C43.3373 39.1129 43.4852 39.2607 43.4852 39.5564C43.4852 39.7412 43.4482 39.8669 43.3743 39.9334C43.3078 39.9999 43.1969 40.0332 43.0416 40.0332C42.7533 40.0332 42.5205 39.9667 42.3431 39.8336C42.1657 39.6932 42.0474 39.5194 41.9883 39.3125C41.8552 39.6155 41.6445 39.8114 41.3562 39.9001C41.0753 39.9889 40.7279 40.0332 40.3139 40.0332H39.4047ZM41.0679 33.9014C41.0679 33.7388 41.1234 33.602 41.2343 33.4911C41.3525 33.3729 41.493 33.3137 41.6556 33.3137C41.8182 33.3137 41.955 33.3729 42.0659 33.4911C42.1841 33.602 42.2433 33.7388 42.2433 33.9014C42.2433 34.064 42.1841 34.2045 42.0659 34.3228C41.955 34.4336 41.8182 34.4891 41.6556 34.4891C41.493 34.4891 41.3525 34.4336 41.2343 34.3228C41.1234 34.2045 41.0679 34.064 41.0679 33.9014ZM43.043 40.0332C42.7473 40.0332 42.5995 39.8854 42.5995 39.5897C42.5995 39.4049 42.6365 39.2792 42.7104 39.2127C42.7769 39.1461 42.8878 39.1129 43.043 39.1129H44.7728V35.7642H45.682V40.0332H43.043ZM43.4866 41.7075C43.4866 41.5449 43.542 41.4044 43.6529 41.2862C43.7712 41.1753 43.9116 41.1199 44.0742 41.1199C44.2369 41.1199 44.3736 41.1753 44.4845 41.2862C44.6028 41.4044 44.6619 41.5449 44.6619 41.7075C44.6619 41.8702 44.6028 42.0069 44.4845 42.1178C44.3736 42.2361 44.2369 42.2952 44.0742 42.2952C43.9116 42.2952 43.7712 42.2361 43.6529 42.1178C43.542 42.0069 43.4866 41.8702 43.4866 41.7075ZM44.928 41.7075C44.928 41.5449 44.9835 41.4044 45.0943 41.2862C45.2126 41.1753 45.3531 41.1199 45.5157 41.1199C45.6783 41.1199 45.8151 41.1753 45.926 41.2862C46.0442 41.4044 46.1034 41.5449 46.1034 41.7075C46.1034 41.8702 46.0442 42.0069 45.926 42.1178C45.8151 42.2361 45.6783 42.2952 45.5157 42.2952C45.3531 42.2952 45.2126 42.2361 45.0943 42.1178C44.9835 42.0069 44.928 41.8702 44.928 41.7075ZM51.6433 40.0332C51.3402 40.0332 51.0851 39.9704 50.8782 39.8447C50.6712 39.719 50.4642 39.4936 50.2572 39.1683C50.1759 39.3679 50.0687 39.5268 49.9357 39.6451C49.81 39.7634 49.6658 39.8521 49.5032 39.9112C49.348 39.963 49.1817 39.9962 49.0043 40.011C48.8268 40.0258 48.6494 40.0332 48.472 40.0332H46.7866V39.1129H48.7714C49.0819 39.1129 49.3184 39.0759 49.481 39.002C49.6511 38.9207 49.7361 38.8061 49.7361 38.6583C49.7361 38.5178 49.6991 38.3774 49.6252 38.2369C49.5513 38.0965 49.4589 37.9449 49.348 37.7823L48.1726 36.0414L49.0264 35.5092L50.357 37.7158C50.5049 37.9597 50.6342 38.1704 50.7451 38.3478C50.856 38.5252 50.9595 38.6694 51.0556 38.7802C51.1591 38.8911 51.2552 38.9761 51.3439 39.0353C51.44 39.087 51.5398 39.1129 51.6433 39.1129C51.9389 39.1129 52.0868 39.2607 52.0868 39.5564C52.0868 39.7412 52.0498 39.8669 51.9759 39.9334C51.9094 39.9999 51.7985 40.0332 51.6433 40.0332ZM51.6407 40.0332C51.345 40.0332 51.1972 39.8854 51.1972 39.5897C51.1972 39.4049 51.2342 39.2792 51.3081 39.2127C51.3746 39.1461 51.4855 39.1129 51.6407 39.1129H52.0954C52.1841 39.1129 52.2765 39.1018 52.3726 39.0796C52.4687 39.0574 52.5648 39.0094 52.6609 38.9355C52.757 38.8615 52.8494 38.7618 52.9381 38.6361C53.0342 38.503 53.1229 38.3256 53.2042 38.1039C53.3742 37.6308 53.5516 37.2501 53.7364 36.9618C53.9286 36.6661 54.1208 36.4406 54.313 36.2854C54.5126 36.1228 54.7122 36.0156 54.9118 35.9638C55.1187 35.9121 55.322 35.8862 55.5216 35.8862C55.8025 35.8862 56.0612 35.9416 56.2978 36.0525C56.5343 36.156 56.7376 36.3076 56.9076 36.5071C57.0851 36.6993 57.2218 36.9322 57.3179 37.2057C57.4214 37.4718 57.4731 37.7712 57.4731 38.1039C57.4731 38.7396 57.3179 39.2459 57.0074 39.6229C56.7044 39.9925 56.235 40.1774 55.5992 40.1774C55.2518 40.1774 54.9007 40.1182 54.5459 39.9999C54.191 39.8817 53.8251 39.6821 53.4481 39.4012C53.352 39.549 53.2522 39.6673 53.1487 39.756C53.0526 39.8373 52.9491 39.9001 52.8383 39.9445C52.7274 39.9815 52.6128 40.0073 52.4945 40.0221C52.3763 40.0295 52.2506 40.0332 52.1175 40.0332H51.6407ZM56.5528 38.0706C56.5528 37.908 56.527 37.749 56.4752 37.5938C56.4309 37.4386 56.3606 37.3018 56.2645 37.1835C56.1758 37.0653 56.0649 36.9729 55.9319 36.9063C55.7988 36.8324 55.6436 36.7954 55.4662 36.7954C55.1557 36.7954 54.8711 36.9322 54.6124 37.2057C54.3537 37.4792 54.1097 37.9597 53.8806 38.6472C54.1541 38.8246 54.4239 38.9687 54.69 39.0796C54.9635 39.1831 55.2407 39.2349 55.5216 39.2349C55.8321 39.2349 56.0797 39.1461 56.2645 38.9687C56.4567 38.7913 56.5528 38.4919 56.5528 38.0706ZM17.932 48.1392C17.932 48.4496 18.0281 48.701 18.2203 48.8932C18.4199 49.0854 18.734 49.1815 19.1628 49.1815C19.3254 49.1815 19.4991 49.163 19.6839 49.126C19.8761 49.0891 20.0461 49.041 20.194 48.9819V47.0082H19.2182C18.8634 47.0082 18.5603 47.1006 18.309 47.2854C18.0577 47.4628 17.932 47.7474 17.932 48.1392ZM19.0852 50.124C18.9078 50.124 18.7008 50.0981 18.4642 50.0464C18.2351 49.9946 18.0133 49.9022 17.7989 49.7691C17.5919 49.6287 17.4145 49.4365 17.2667 49.1926C17.1188 48.9412 17.0449 48.616 17.0449 48.2168C17.0449 47.8176 17.1152 47.485 17.2556 47.2189C17.3961 46.9453 17.5772 46.7236 17.7989 46.5536C18.0207 46.3835 18.2646 46.2616 18.5308 46.1876C18.8043 46.1137 19.0741 46.0768 19.3402 46.0768H21.1032V49.2591C21.1032 49.5696 21.1513 49.7913 21.2474 49.9244C21.3435 50.05 21.5578 50.1129 21.8905 50.1129H22.1566C22.4523 50.1129 22.6001 50.2607 22.6001 50.5564C22.6001 50.7412 22.5632 50.8669 22.4893 50.9334C22.4227 50.9999 22.3118 51.0332 22.1566 51.0332H21.7796C21.5874 51.0332 21.4026 51.0184 21.2252 50.9889C21.0552 50.9519 20.8999 50.8928 20.7595 50.8114C20.6264 50.7227 20.5118 50.6082 20.4158 50.4677C20.3197 50.3273 20.2568 50.1461 20.2273 49.9244C20.0646 49.9835 19.8798 50.0316 19.6728 50.0685C19.4733 50.1055 19.2774 50.124 19.0852 50.124ZM22.1551 51.0332C21.8594 51.0332 21.7116 50.8854 21.7116 50.5897C21.7116 50.4049 21.7486 50.2792 21.8225 50.2127C21.889 50.1461 21.9999 50.1129 22.1551 50.1129H23.0422C23.1752 50.1129 23.2935 50.1055 23.397 50.0907C23.5005 50.0759 23.5855 50.0427 23.652 49.9909C23.726 49.9318 23.7814 49.8505 23.8184 49.747C23.8627 49.6361 23.8849 49.4882 23.8849 49.3034V43.1162H24.7941V48.8932C24.7941 49.2702 24.8681 49.5696 25.0159 49.7913C25.1711 50.0057 25.4151 50.1129 25.7477 50.1129C26.0434 50.1129 26.1912 50.2607 26.1912 50.5564C26.1912 50.7412 26.1543 50.8669 26.0804 50.9334C26.0138 50.9999 25.903 51.0332 25.7477 51.0332C25.4594 51.0332 25.2266 50.9667 25.0492 50.8336C24.8791 50.6932 24.7646 50.5194 24.7054 50.3125C24.5724 50.6155 24.358 50.8114 24.0623 50.9001C23.774 50.9889 23.4007 51.0332 22.9424 51.0332H22.1551ZM25.7501 51.0332C25.4545 51.0332 25.3066 50.8854 25.3066 50.5897C25.3066 50.4049 25.3436 50.2792 25.4175 50.2127C25.484 50.1461 25.5949 50.1129 25.7501 50.1129H27.4799V43.1162H28.3891V51.0332H25.7501ZM30.8465 43.1162V51.0332H29.9373V43.1162H30.8465ZM36.8084 51.0332C36.5053 51.0332 36.2503 50.9704 36.0433 50.8447C35.8363 50.719 35.6294 50.4936 35.4224 50.1683C35.3411 50.3679 35.2339 50.5268 35.1008 50.6451C34.9752 50.7634 34.831 50.8521 34.6684 50.9112C34.5131 50.963 34.3468 50.9962 34.1694 51.011C33.992 51.0258 33.8146 51.0332 33.6372 51.0332H31.9518V50.1129H33.9366C34.247 50.1129 34.4836 50.0759 34.6462 50.002C34.8162 49.9207 34.9012 49.8061 34.9012 49.6583C34.9012 49.5178 34.8643 49.3774 34.7903 49.2369C34.7164 49.0965 34.624 48.9449 34.5131 48.7823L33.3378 47.0414L34.1916 46.5092L35.5222 48.7158C35.67 48.9597 35.7994 49.1704 35.9103 49.3478C36.0211 49.5252 36.1246 49.6694 36.2207 49.7802C36.3242 49.8911 36.4203 49.9761 36.509 50.0353C36.6051 50.087 36.7049 50.1129 36.8084 50.1129C37.1041 50.1129 37.2519 50.2607 37.2519 50.5564C37.2519 50.7412 37.215 50.8669 37.1411 50.9334C37.0745 50.9999 36.9636 51.0332 36.8084 51.0332ZM36.8059 51.0332C36.5102 51.0332 36.3624 50.8854 36.3624 50.5897C36.3624 50.4049 36.3993 50.2792 36.4732 50.2127C36.5398 50.1461 36.6507 50.1129 36.8059 50.1129H37.5488C37.7262 50.1129 37.8778 50.1055 38.0034 50.0907C38.1291 50.0759 38.2326 50.0427 38.3139 49.9909C38.4026 49.9318 38.4654 49.8505 38.5024 49.747C38.5467 49.6361 38.5689 49.4882 38.5689 49.3034V46.7642H39.4782V48.8932C39.4782 49.078 39.4892 49.248 39.5114 49.4032C39.541 49.5511 39.5927 49.6767 39.6667 49.7802C39.7406 49.8837 39.8404 49.965 39.966 50.0242C40.0917 50.0833 40.2506 50.1129 40.4428 50.1129C40.7385 50.1129 40.8864 50.2607 40.8864 50.5564C40.8864 50.7412 40.8494 50.8669 40.7755 50.9334C40.7089 50.9999 40.5981 51.0332 40.4428 51.0332C40.1545 51.0332 39.9217 50.9667 39.7443 50.8336C39.5669 50.6932 39.4486 50.5194 39.3894 50.3125C39.2564 50.6155 39.0457 50.8114 38.7574 50.9001C38.4765 50.9889 38.1291 51.0332 37.7151 51.0332H36.8059ZM38.2363 52.6854C38.2363 52.5227 38.2917 52.3823 38.4026 52.264C38.5209 52.1531 38.6613 52.0977 38.8239 52.0977C38.9866 52.0977 39.1233 52.1531 39.2342 52.264C39.3525 52.3823 39.4116 52.5227 39.4116 52.6854C39.4116 52.848 39.3525 52.9847 39.2342 53.0956C39.1233 53.2139 38.9866 53.273 38.8239 53.273C38.6613 53.273 38.5209 53.2139 38.4026 53.0956C38.2917 52.9847 38.2363 52.848 38.2363 52.6854ZM40.4442 51.0332C40.1485 51.0332 40.0007 50.8854 40.0007 50.5897C40.0007 50.4049 40.0376 50.2792 40.1116 50.2127C40.1781 50.1461 40.289 50.1129 40.4442 50.1129H41.8081C41.675 49.9724 41.5641 49.7913 41.4754 49.5696C41.3867 49.3478 41.3424 49.0965 41.3424 48.8156C41.3424 48.4312 41.4126 48.0985 41.553 47.8176C41.7009 47.5367 41.8894 47.3039 42.1185 47.1191C42.3551 46.9343 42.6138 46.7975 42.8947 46.7088C43.183 46.6201 43.4713 46.5757 43.7596 46.5757C44.0183 46.5757 44.2438 46.5905 44.436 46.6201C44.6282 46.6497 44.7649 46.6829 44.8462 46.7199V47.7067C44.7058 47.6624 44.5543 47.6254 44.3916 47.5959C44.229 47.5589 44.0294 47.5404 43.7929 47.5404C43.3272 47.5404 42.9576 47.655 42.684 47.8841C42.4105 48.1133 42.2738 48.4275 42.2738 48.8266C42.2738 49.2036 42.3921 49.5141 42.6286 49.7581C42.8651 49.9946 43.2237 50.1129 43.7042 50.1129H45.323V51.0332H40.4442ZM15.1058 59.1392C15.1058 59.4496 15.2019 59.701 15.3941 59.8932C15.5937 60.0854 15.9078 60.1815 16.3366 60.1815C16.4992 60.1815 16.6729 60.163 16.8577 60.126C17.0499 60.0891 17.2199 60.041 17.3678 59.9819V58.0082H16.392C16.0372 58.0082 15.7341 58.1006 15.4828 58.2854C15.2315 58.4628 15.1058 58.7474 15.1058 59.1392ZM16.259 61.124C16.0816 61.124 15.8746 61.0981 15.638 61.0464C15.4089 60.9946 15.1871 60.9022 14.9727 60.7691C14.7657 60.6287 14.5883 60.4365 14.4405 60.1926C14.2926 59.9412 14.2187 59.616 14.2187 59.2168C14.2187 58.8176 14.289 58.485 14.4294 58.2189C14.5699 57.9453 14.751 57.7236 14.9727 57.5536C15.1945 57.3835 15.4384 57.2616 15.7046 57.1876C15.9781 57.1137 16.2479 57.0768 16.514 57.0768H18.277V60.2591C18.277 60.5696 18.3251 60.7913 18.4212 60.9244C18.5173 61.05 18.7316 61.1129 19.0643 61.1129H19.3304C19.6261 61.1129 19.7739 61.2607 19.7739 61.5564C19.7739 61.7412 19.737 61.8669 19.6631 61.9334C19.5965 61.9999 19.4856 62.0332 19.3304 62.0332H18.9534C18.7612 62.0332 18.5764 62.0184 18.399 61.9889C18.229 61.9519 18.0737 61.8928 17.9333 61.8114C17.8002 61.7227 17.6856 61.6082 17.5896 61.4677C17.4935 61.3273 17.4306 61.1461 17.4011 60.9244C17.2384 60.9835 17.0536 61.0316 16.8466 61.0685C16.6471 61.1055 16.4512 61.124 16.259 61.124ZM15.3497 55.0587C15.3497 54.8961 15.4052 54.7593 15.5161 54.6484C15.6343 54.5302 15.7748 54.471 15.9374 54.471C16.1 54.471 16.2368 54.5302 16.3477 54.6484C16.4659 54.7593 16.5251 54.8961 16.5251 55.0587C16.5251 55.2213 16.4659 55.3618 16.3477 55.4801C16.2368 55.5909 16.1 55.6464 15.9374 55.6464C15.7748 55.6464 15.6343 55.5909 15.5161 55.4801C15.4052 55.3618 15.3497 55.2213 15.3497 55.0587ZM16.7912 55.0587C16.7912 54.8961 16.8466 54.7593 16.9575 54.6484C17.0758 54.5302 17.2162 54.471 17.3789 54.471C17.5415 54.471 17.6783 54.5302 17.7891 54.6484C17.9074 54.7593 17.9666 54.8961 17.9666 55.0587C17.9666 55.2213 17.9074 55.3618 17.7891 55.4801C17.6783 55.5909 17.5415 55.6464 17.3789 55.6464C17.2162 55.6464 17.0758 55.5909 16.9575 55.4801C16.8466 55.3618 16.7912 55.2213 16.7912 55.0587ZM19.3289 62.0332C19.0332 62.0332 18.8854 61.8854 18.8854 61.5897C18.8854 61.4049 18.9224 61.2792 18.9963 61.2127C19.0628 61.1461 19.1737 61.1129 19.3289 61.1129H20.0718C20.2493 61.1129 20.4008 61.1055 20.5265 61.0907C20.6521 61.0759 20.7556 61.0427 20.8369 60.9909C20.9256 60.9318 20.9885 60.8505 21.0254 60.747C21.0698 60.6361 21.092 60.4882 21.092 60.3034V57.7642H22.0012V59.8932C22.0012 60.078 22.0123 60.248 22.0345 60.4032C22.064 60.5511 22.1158 60.6767 22.1897 60.7802C22.2636 60.8837 22.3634 60.965 22.4891 61.0242C22.6147 61.0833 22.7737 61.1129 22.9659 61.1129C23.2616 61.1129 23.4094 61.2607 23.4094 61.5564C23.4094 61.7412 23.3724 61.8669 23.2985 61.9334C23.232 61.9999 23.1211 62.0332 22.9659 62.0332C22.6776 62.0332 22.4447 61.9667 22.2673 61.8336C22.0899 61.6932 21.9716 61.5194 21.9125 61.3125C21.7794 61.6155 21.5688 61.8114 21.2805 61.9001C20.9996 61.9889 20.6521 62.0332 20.2382 62.0332H19.3289ZM20.2049 63.7075C20.2049 63.5449 20.2603 63.4044 20.3712 63.2862C20.4895 63.1753 20.63 63.1199 20.7926 63.1199C20.9552 63.1199 21.092 63.1753 21.2028 63.2862C21.3211 63.4044 21.3803 63.5449 21.3803 63.7075C21.3803 63.8702 21.3211 64.0069 21.2028 64.1178C21.092 64.2361 20.9552 64.2952 20.7926 64.2952C20.63 64.2952 20.4895 64.2361 20.3712 64.1178C20.2603 64.0069 20.2049 63.8702 20.2049 63.7075ZM21.6464 63.7075C21.6464 63.5449 21.7018 63.4044 21.8127 63.2862C21.931 63.1753 22.0714 63.1199 22.234 63.1199C22.3967 63.1199 22.5334 63.1753 22.6443 63.2862C22.7626 63.4044 22.8217 63.5449 22.8217 63.7075C22.8217 63.8702 22.7626 64.0069 22.6443 64.1178C22.5334 64.2361 22.3967 64.2952 22.234 64.2952C22.0714 64.2952 21.931 64.2361 21.8127 64.1178C21.7018 64.0069 21.6464 63.8702 21.6464 63.7075ZM31.86 61.1129V60.37C31.86 60.1039 31.8305 59.8599 31.7713 59.6381C31.7196 59.409 31.6309 59.2131 31.5052 59.0505C31.3795 58.8878 31.2132 58.7622 31.0062 58.6735C30.8066 58.5848 30.5627 58.5404 30.2744 58.5404C29.9196 58.5404 29.5869 58.618 29.2765 58.7733C28.9734 58.9285 28.6925 59.1281 28.4338 59.372C28.1824 59.616 27.9644 59.8932 27.7796 60.2036C27.5947 60.5067 27.4469 60.8098 27.336 61.1129H31.86ZM22.9673 62.0332C22.6716 62.0332 22.5237 61.8854 22.5237 61.5897C22.5237 61.4049 22.5607 61.2792 22.6346 61.2127C22.7011 61.1461 22.812 61.1129 22.9673 61.1129H23.3553C23.5993 61.1129 23.8063 61.1055 23.9763 61.0907C24.1463 61.0759 24.2794 61.0427 24.3755 60.9909C24.479 60.9318 24.5529 60.8505 24.5972 60.747C24.6416 60.6361 24.6638 60.4882 24.6638 60.3034V58.3186H25.573V59.8932C25.573 60.078 25.5804 60.248 25.5952 60.4032C25.61 60.5511 25.6432 60.6767 25.695 60.7802C25.7541 60.8837 25.8354 60.965 25.9389 61.0242C26.0424 61.0833 26.1828 61.1129 26.3603 61.1129C26.5007 60.7063 26.6929 60.296 26.9368 59.8821C27.1882 59.4607 27.4839 59.0837 27.8239 58.7511C28.1713 58.411 28.5631 58.1375 28.9993 57.9306C29.4354 57.7162 29.9085 57.609 30.4186 57.609C31.1652 57.609 31.7417 57.8308 32.1483 58.2743C32.5623 58.7178 32.7693 59.3462 32.7693 60.1593V62.0332H26.7816C26.5525 62.0332 26.364 62.0147 26.2161 61.9778C26.0683 61.9334 25.9463 61.878 25.8502 61.8114C25.7615 61.7449 25.6876 61.6673 25.6284 61.5786C25.5767 61.4899 25.5286 61.4012 25.4843 61.3125C25.4178 61.4677 25.3291 61.5934 25.2182 61.6895C25.1073 61.7782 24.9668 61.8484 24.7968 61.9001C24.6268 61.9519 24.4198 61.9889 24.1759 62.011C23.9393 62.0258 23.6584 62.0332 23.3332 62.0332H22.9673ZM29.7754 55.9014C29.7754 55.7388 29.8309 55.602 29.9418 55.4911C30.06 55.3729 30.2005 55.3137 30.3631 55.3137C30.5257 55.3137 30.6625 55.3729 30.7734 55.4911C30.8917 55.602 30.9508 55.7388 30.9508 55.9014C30.9508 56.064 30.8917 56.2045 30.7734 56.3228C30.6625 56.4336 30.5257 56.4891 30.3631 56.4891C30.2005 56.4891 30.06 56.4336 29.9418 56.3228C29.8309 56.2045 29.7754 56.064 29.7754 55.9014ZM36.5319 61.5564C36.5319 61.7412 36.4949 61.8669 36.421 61.9334C36.3545 61.9999 36.2436 62.0332 36.0884 62.0332H35.8001C35.5635 62.0332 35.3455 62.011 35.1459 61.9667C34.9537 61.9149 34.7873 61.8299 34.6469 61.7116C34.5138 61.5934 34.4066 61.4381 34.3253 61.2459C34.2514 61.0464 34.2145 60.7987 34.2145 60.503V54.1162H35.1237V60.2591C35.1237 60.5696 35.1717 60.7913 35.2678 60.9244C35.3639 61.05 35.5783 61.1129 35.911 61.1129H36.0884C36.384 61.1129 36.5319 61.2607 36.5319 61.5564ZM36.0912 62.0332C35.7955 62.0332 35.6477 61.8854 35.6477 61.5897C35.6477 61.4049 35.6847 61.2792 35.7586 61.2127C35.8251 61.1461 35.936 61.1129 36.0912 61.1129H37.821V57.7642H38.7302V62.0332H36.0912ZM36.5348 63.7075C36.5348 63.5449 36.5902 63.4044 36.7011 63.2862C36.8194 63.1753 36.9598 63.1199 37.1224 63.1199C37.2851 63.1199 37.4218 63.1753 37.5327 63.2862C37.651 63.4044 37.7101 63.5449 37.7101 63.7075C37.7101 63.8702 37.651 64.0069 37.5327 64.1178C37.4218 64.2361 37.2851 64.2952 37.1224 64.2952C36.9598 64.2952 36.8194 64.2361 36.7011 64.1178C36.5902 64.0069 36.5348 63.8702 36.5348 63.7075ZM37.9762 63.7075C37.9762 63.5449 38.0317 63.4044 38.1425 63.2862C38.2608 63.1753 38.4013 63.1199 38.5639 63.1199C38.7265 63.1199 38.8633 63.1753 38.9742 63.2862C39.0924 63.4044 39.1516 63.5449 39.1516 63.7075C39.1516 63.8702 39.0924 64.0069 38.9742 64.1178C38.8633 64.2361 38.7265 64.2952 38.5639 64.2952C38.4013 64.2952 38.2608 64.2361 38.1425 64.1178C38.0317 64.0069 37.9762 63.8702 37.9762 63.7075ZM42.9506 62.0332C42.7067 62.0332 42.5034 61.9778 42.3407 61.8669C42.1781 61.756 42.0561 61.6266 41.9748 61.4788C41.9748 62.011 41.9416 62.4583 41.875 62.8205C41.8085 63.1901 41.6865 63.4858 41.5091 63.7075C41.3391 63.9367 41.0989 64.0993 40.7884 64.1954C40.4779 64.2989 40.075 64.3506 39.5798 64.3506V63.4303C39.942 63.4303 40.2229 63.3897 40.4225 63.3084C40.6295 63.2344 40.781 63.1088 40.8771 62.9314C40.9806 62.7613 41.0397 62.5396 41.0545 62.2661C41.0767 61.9999 41.0878 61.6747 41.0878 61.2903V58.3186H41.9859V59.8932C41.9859 60.2702 42.0524 60.5696 42.1855 60.7913C42.326 61.0057 42.581 61.1129 42.9506 61.1129C43.2463 61.1129 43.3941 61.2607 43.3941 61.5564C43.3941 61.7412 43.3572 61.8669 43.2832 61.9334C43.2167 61.9999 43.1058 62.0332 42.9506 62.0332ZM42.9456 62.0332C42.6499 62.0332 42.502 61.8854 42.502 61.5897C42.502 61.4049 42.539 61.2792 42.6129 61.2127C42.6795 61.1461 42.7903 61.1129 42.9456 61.1129H44.6753V54.1162H45.5846V62.0332H42.9456ZM48.0419 54.1162V62.0332H47.1327V54.1162H48.0419Z" fill="white"></path>
<path d="M31.7501 12.3691C27.3317 12.3691 23.75 13.3262 23.75 14.5068C23.75 14.8576 24.0676 15.189 24.6277 15.481C25.3466 14.9107 26.5758 14.2716 27.6778 14.0224C28.9048 13.7451 30.3283 13.6052 31.7499 13.5937C33.1714 13.5823 34.5911 13.696 35.8166 13.9444C36.9911 14.1825 38.3076 14.8573 38.9999 15.4084C39.4805 15.134 39.75 14.83 39.75 14.5068C39.75 13.3262 36.1686 12.3691 31.7501 12.3691ZM31.7555 14.3064C30.3772 14.3172 28.9951 14.4557 27.8332 14.7183C26.9663 14.9143 26.0268 15.3878 25.3999 15.8039C25.5502 15.8563 25.7102 15.9056 25.8778 15.9542C27.2115 15.2412 29.6131 14.685 31.7502 14.685C33.8871 14.685 36.2935 15.2413 37.6281 15.9542C37.8515 15.8895 38.0579 15.8199 38.2504 15.7482C37.6294 15.3411 36.6139 14.8356 35.6782 14.6459C34.5149 14.41 33.1339 14.2956 31.7555 14.3064ZM31.75 15.3975C30.1161 15.3975 28.2902 15.7872 27.0499 16.2326C28.3705 16.4897 29.9911 16.6445 31.75 16.6445C33.5112 16.6445 35.1341 16.4903 36.4558 16.2326C35.2137 15.7872 33.384 15.3975 31.75 15.3975ZM39.5834 15.4476C39.1195 15.7624 38.4347 16.0321 37.6224 16.2492C36.086 16.6598 34.0248 16.9006 31.7499 16.9006C29.4749 16.9006 27.4139 16.6598 25.8774 16.2492C25.1114 16.0446 24.4604 15.7896 23.9996 15.4977L24.9941 19.4948C26.3704 20.1568 27.7667 20.6123 29.1719 20.8643L28.9163 19.7509C28.8886 19.6333 28.9255 19.5024 29.0108 19.4169L29.8997 18.5262C29.9578 18.4694 30.0356 18.4333 30.1164 18.426H33.3498C33.4436 18.4239 33.5379 18.4608 33.6054 18.5262L34.4943 19.4169C34.5795 19.5024 34.6165 19.6333 34.5888 19.7509L34.3276 20.8755C35.776 20.6261 37.2293 20.1673 38.6832 19.4949L39.5834 15.4476ZM30.0668 20.0291L30.439 21.6323H33.0668L33.4391 20.0291H30.0668Z" fill="#EDEDED"></path>
<path d="M31.7502 14.685C29.6131 14.685 27.2115 15.2412 25.8778 15.9542L27.0499 16.2326C28.2902 15.7872 30.1161 15.3975 31.75 15.3975C33.384 15.3975 35.2137 15.7872 36.4558 16.2326L37.6281 15.9542C36.2935 15.2413 33.8871 14.685 31.7502 14.685Z" fill="#EDEDED"></path>
</svg>